<?xml version="1.0" encoding="utf-8" standalone="no"?>
<!DOCTYPE svg PUBLIC "-//W3C//DTD SVG 1.1//EN"
  "http://www.w3.org/Graphics/SVG/1.1/DTD/svg11.dtd">
<svg height="345.6pt" version="1.1" viewBox="0 0 460.8 345.6" width="460.8pt" xmlns="http://www.w3.org/2000/svg" xmlns:xlink="http://www.w3.org/1999/xlink">
 <metadata>
  <rdf:RDF xmlns:cc="http://creativecommons.org/ns#" xmlns:dc="http://purl.org/dc/elements/1.1/" xmlns:rdf="http://www.w3.org/1999/02/22-rdf-syntax-ns#">
   <cc:Work>
    <dc:type rdf:resource="http://purl.org/dc/dcmitype/StillImage"/>
    <dc:date>2021-10-26T16:05:52.009575</dc:date>
    <dc:format>image/svg+xml</dc:format>
    <dc:creator>
     <cc:Agent>
      <dc:title>Matplotlib v3.4.1, https://matplotlib.org/</dc:title>
     </cc:Agent>
    </dc:creator>
   </cc:Work>
  </rdf:RDF>
 </metadata>
 <defs>
  <style type="text/css">*{stroke-linecap:butt;stroke-linejoin:round;}</style>
 </defs>
 <g id="figure_1">
  <g id="patch_1">
   <path d="M 0 345.6 
L 460.8 345.6 
L 460.8 0 
L 0 0 
z
" style="fill:#ffffff;"/>
  </g>
  <g id="axes_1">
   <g id="patch_2">
    <path d="M 52.65 298.20375 
L 438.66 298.20375 
L 438.66 12.96 
L 52.65 12.96 
z
" style="fill:#eaeaf2;"/>
   </g>
   <g id="matplotlib.axis_1">
    <g id="xtick_1">
     <g id="line2d_1">
      <path clip-path="url(#p1d761a9b6e)" d="M 52.65 298.20375 
L 52.65 12.96 
" style="fill:none;stroke:#ffffff;stroke-linecap:round;"/>
     </g>
     <g id="text_1">
      <!-- 0 -->
      <g style="fill:#262626;" transform="translate(49.591484 315.577344)scale(0.11 -0.11)">
       <defs>
        <path d="M 266 2259 
Q 266 3072 433 3567 
Q 600 4063 929 4331 
Q 1259 4600 1759 4600 
Q 2128 4600 2406 4451 
Q 2684 4303 2865 4023 
Q 3047 3744 3150 3342 
Q 3253 2941 3253 2259 
Q 3253 1453 3087 958 
Q 2922 463 2592 192 
Q 2263 -78 1759 -78 
Q 1097 -78 719 397 
Q 266 969 266 2259 
z
M 844 2259 
Q 844 1131 1108 757 
Q 1372 384 1759 384 
Q 2147 384 2411 759 
Q 2675 1134 2675 2259 
Q 2675 3391 2411 3762 
Q 2147 4134 1753 4134 
Q 1366 4134 1134 3806 
Q 844 3388 844 2259 
z
" id="ArialMT-30" transform="scale(0.015625)"/>
       </defs>
       <use xlink:href="#ArialMT-30"/>
      </g>
     </g>
    </g>
    <g id="xtick_2">
     <g id="line2d_2">
      <path clip-path="url(#p1d761a9b6e)" d="M 129.852 298.20375 
L 129.852 12.96 
" style="fill:none;stroke:#ffffff;stroke-linecap:round;"/>
     </g>
     <g id="text_2">
      <!-- 100 -->
      <g style="fill:#262626;" transform="translate(120.676453 315.577344)scale(0.11 -0.11)">
       <defs>
        <path d="M 2384 0 
L 1822 0 
L 1822 3584 
Q 1619 3391 1289 3197 
Q 959 3003 697 2906 
L 697 3450 
Q 1169 3672 1522 3987 
Q 1875 4303 2022 4600 
L 2384 4600 
L 2384 0 
z
" id="ArialMT-31" transform="scale(0.015625)"/>
       </defs>
       <use xlink:href="#ArialMT-31"/>
       <use x="55.615234" xlink:href="#ArialMT-30"/>
       <use x="111.230469" xlink:href="#ArialMT-30"/>
      </g>
     </g>
    </g>
    <g id="xtick_3">
     <g id="line2d_3">
      <path clip-path="url(#p1d761a9b6e)" d="M 207.054 298.20375 
L 207.054 12.96 
" style="fill:none;stroke:#ffffff;stroke-linecap:round;"/>
     </g>
     <g id="text_3">
      <!-- 200 -->
      <g style="fill:#262626;" transform="translate(197.878453 315.577344)scale(0.11 -0.11)">
       <defs>
        <path d="M 3222 541 
L 3222 0 
L 194 0 
Q 188 203 259 391 
Q 375 700 629 1000 
Q 884 1300 1366 1694 
Q 2113 2306 2375 2664 
Q 2638 3022 2638 3341 
Q 2638 3675 2398 3904 
Q 2159 4134 1775 4134 
Q 1369 4134 1125 3890 
Q 881 3647 878 3216 
L 300 3275 
Q 359 3922 746 4261 
Q 1134 4600 1788 4600 
Q 2447 4600 2831 4234 
Q 3216 3869 3216 3328 
Q 3216 3053 3103 2787 
Q 2991 2522 2730 2228 
Q 2469 1934 1863 1422 
Q 1356 997 1212 845 
Q 1069 694 975 541 
L 3222 541 
z
" id="ArialMT-32" transform="scale(0.015625)"/>
       </defs>
       <use xlink:href="#ArialMT-32"/>
       <use x="55.615234" xlink:href="#ArialMT-30"/>
       <use x="111.230469" xlink:href="#ArialMT-30"/>
      </g>
     </g>
    </g>
    <g id="xtick_4">
     <g id="line2d_4">
      <path clip-path="url(#p1d761a9b6e)" d="M 284.256 298.20375 
L 284.256 12.96 
" style="fill:none;stroke:#ffffff;stroke-linecap:round;"/>
     </g>
     <g id="text_4">
      <!-- 300 -->
      <g style="fill:#262626;" transform="translate(275.080453 315.577344)scale(0.11 -0.11)">
       <defs>
        <path d="M 269 1209 
L 831 1284 
Q 928 806 1161 595 
Q 1394 384 1728 384 
Q 2125 384 2398 659 
Q 2672 934 2672 1341 
Q 2672 1728 2419 1979 
Q 2166 2231 1775 2231 
Q 1616 2231 1378 2169 
L 1441 2663 
Q 1497 2656 1531 2656 
Q 1891 2656 2178 2843 
Q 2466 3031 2466 3422 
Q 2466 3731 2256 3934 
Q 2047 4138 1716 4138 
Q 1388 4138 1169 3931 
Q 950 3725 888 3313 
L 325 3413 
Q 428 3978 793 4289 
Q 1159 4600 1703 4600 
Q 2078 4600 2393 4439 
Q 2709 4278 2876 4000 
Q 3044 3722 3044 3409 
Q 3044 3113 2884 2869 
Q 2725 2625 2413 2481 
Q 2819 2388 3044 2092 
Q 3269 1797 3269 1353 
Q 3269 753 2831 336 
Q 2394 -81 1725 -81 
Q 1122 -81 723 278 
Q 325 638 269 1209 
z
" id="ArialMT-33" transform="scale(0.015625)"/>
       </defs>
       <use xlink:href="#ArialMT-33"/>
       <use x="55.615234" xlink:href="#ArialMT-30"/>
       <use x="111.230469" xlink:href="#ArialMT-30"/>
      </g>
     </g>
    </g>
    <g id="xtick_5">
     <g id="line2d_5">
      <path clip-path="url(#p1d761a9b6e)" d="M 361.458 298.20375 
L 361.458 12.96 
" style="fill:none;stroke:#ffffff;stroke-linecap:round;"/>
     </g>
     <g id="text_5">
      <!-- 400 -->
      <g style="fill:#262626;" transform="translate(352.282453 315.577344)scale(0.11 -0.11)">
       <defs>
        <path d="M 2069 0 
L 2069 1097 
L 81 1097 
L 81 1613 
L 2172 4581 
L 2631 4581 
L 2631 1613 
L 3250 1613 
L 3250 1097 
L 2631 1097 
L 2631 0 
L 2069 0 
z
M 2069 1613 
L 2069 3678 
L 634 1613 
L 2069 1613 
z
" id="ArialMT-34" transform="scale(0.015625)"/>
       </defs>
       <use xlink:href="#ArialMT-34"/>
       <use x="55.615234" xlink:href="#ArialMT-30"/>
       <use x="111.230469" xlink:href="#ArialMT-30"/>
      </g>
     </g>
    </g>
    <g id="xtick_6">
     <g id="line2d_6">
      <path clip-path="url(#p1d761a9b6e)" d="M 438.66 298.20375 
L 438.66 12.96 
" style="fill:none;stroke:#ffffff;stroke-linecap:round;"/>
     </g>
     <g id="text_6">
      <!-- 500 -->
      <g style="fill:#262626;" transform="translate(429.484453 315.577344)scale(0.11 -0.11)">
       <defs>
        <path d="M 266 1200 
L 856 1250 
Q 922 819 1161 601 
Q 1400 384 1738 384 
Q 2144 384 2425 690 
Q 2706 997 2706 1503 
Q 2706 1984 2436 2262 
Q 2166 2541 1728 2541 
Q 1456 2541 1237 2417 
Q 1019 2294 894 2097 
L 366 2166 
L 809 4519 
L 3088 4519 
L 3088 3981 
L 1259 3981 
L 1013 2750 
Q 1425 3038 1878 3038 
Q 2478 3038 2890 2622 
Q 3303 2206 3303 1553 
Q 3303 931 2941 478 
Q 2500 -78 1738 -78 
Q 1113 -78 717 272 
Q 322 622 266 1200 
z
" id="ArialMT-35" transform="scale(0.015625)"/>
       </defs>
       <use xlink:href="#ArialMT-35"/>
       <use x="55.615234" xlink:href="#ArialMT-30"/>
       <use x="111.230469" xlink:href="#ArialMT-30"/>
      </g>
     </g>
    </g>
    <g id="text_7">
     <!-- Timestep -->
     <g style="fill:#262626;" transform="translate(221.207813 330.352969)scale(0.12 -0.12)">
      <defs>
       <path d="M 1659 0 
L 1659 4041 
L 150 4041 
L 150 4581 
L 3781 4581 
L 3781 4041 
L 2266 4041 
L 2266 0 
L 1659 0 
z
" id="ArialMT-54" transform="scale(0.015625)"/>
       <path d="M 425 3934 
L 425 4581 
L 988 4581 
L 988 3934 
L 425 3934 
z
M 425 0 
L 425 3319 
L 988 3319 
L 988 0 
L 425 0 
z
" id="ArialMT-69" transform="scale(0.015625)"/>
       <path d="M 422 0 
L 422 3319 
L 925 3319 
L 925 2853 
Q 1081 3097 1340 3245 
Q 1600 3394 1931 3394 
Q 2300 3394 2536 3241 
Q 2772 3088 2869 2813 
Q 3263 3394 3894 3394 
Q 4388 3394 4653 3120 
Q 4919 2847 4919 2278 
L 4919 0 
L 4359 0 
L 4359 2091 
Q 4359 2428 4304 2576 
Q 4250 2725 4106 2815 
Q 3963 2906 3769 2906 
Q 3419 2906 3187 2673 
Q 2956 2441 2956 1928 
L 2956 0 
L 2394 0 
L 2394 2156 
Q 2394 2531 2256 2718 
Q 2119 2906 1806 2906 
Q 1569 2906 1367 2781 
Q 1166 2656 1075 2415 
Q 984 2175 984 1722 
L 984 0 
L 422 0 
z
" id="ArialMT-6d" transform="scale(0.015625)"/>
       <path d="M 2694 1069 
L 3275 997 
Q 3138 488 2766 206 
Q 2394 -75 1816 -75 
Q 1088 -75 661 373 
Q 234 822 234 1631 
Q 234 2469 665 2931 
Q 1097 3394 1784 3394 
Q 2450 3394 2872 2941 
Q 3294 2488 3294 1666 
Q 3294 1616 3291 1516 
L 816 1516 
Q 847 969 1125 678 
Q 1403 388 1819 388 
Q 2128 388 2347 550 
Q 2566 713 2694 1069 
z
M 847 1978 
L 2700 1978 
Q 2663 2397 2488 2606 
Q 2219 2931 1791 2931 
Q 1403 2931 1139 2672 
Q 875 2413 847 1978 
z
" id="ArialMT-65" transform="scale(0.015625)"/>
       <path d="M 197 991 
L 753 1078 
Q 800 744 1014 566 
Q 1228 388 1613 388 
Q 2000 388 2187 545 
Q 2375 703 2375 916 
Q 2375 1106 2209 1216 
Q 2094 1291 1634 1406 
Q 1016 1563 777 1677 
Q 538 1791 414 1992 
Q 291 2194 291 2438 
Q 291 2659 392 2848 
Q 494 3038 669 3163 
Q 800 3259 1026 3326 
Q 1253 3394 1513 3394 
Q 1903 3394 2198 3281 
Q 2494 3169 2634 2976 
Q 2775 2784 2828 2463 
L 2278 2388 
Q 2241 2644 2061 2787 
Q 1881 2931 1553 2931 
Q 1166 2931 1000 2803 
Q 834 2675 834 2503 
Q 834 2394 903 2306 
Q 972 2216 1119 2156 
Q 1203 2125 1616 2013 
Q 2213 1853 2448 1751 
Q 2684 1650 2818 1456 
Q 2953 1263 2953 975 
Q 2953 694 2789 445 
Q 2625 197 2315 61 
Q 2006 -75 1616 -75 
Q 969 -75 630 194 
Q 291 463 197 991 
z
" id="ArialMT-73" transform="scale(0.015625)"/>
       <path d="M 1650 503 
L 1731 6 
Q 1494 -44 1306 -44 
Q 1000 -44 831 53 
Q 663 150 594 308 
Q 525 466 525 972 
L 525 2881 
L 113 2881 
L 113 3319 
L 525 3319 
L 525 4141 
L 1084 4478 
L 1084 3319 
L 1650 3319 
L 1650 2881 
L 1084 2881 
L 1084 941 
Q 1084 700 1114 631 
Q 1144 563 1211 522 
Q 1278 481 1403 481 
Q 1497 481 1650 503 
z
" id="ArialMT-74" transform="scale(0.015625)"/>
       <path d="M 422 -1272 
L 422 3319 
L 934 3319 
L 934 2888 
Q 1116 3141 1344 3267 
Q 1572 3394 1897 3394 
Q 2322 3394 2647 3175 
Q 2972 2956 3137 2557 
Q 3303 2159 3303 1684 
Q 3303 1175 3120 767 
Q 2938 359 2589 142 
Q 2241 -75 1856 -75 
Q 1575 -75 1351 44 
Q 1128 163 984 344 
L 984 -1272 
L 422 -1272 
z
M 931 1641 
Q 931 1000 1190 694 
Q 1450 388 1819 388 
Q 2194 388 2461 705 
Q 2728 1022 2728 1688 
Q 2728 2322 2467 2637 
Q 2206 2953 1844 2953 
Q 1484 2953 1207 2617 
Q 931 2281 931 1641 
z
" id="ArialMT-70" transform="scale(0.015625)"/>
      </defs>
      <use xlink:href="#ArialMT-54"/>
      <use x="57.333984" xlink:href="#ArialMT-69"/>
      <use x="79.550781" xlink:href="#ArialMT-6d"/>
      <use x="162.851562" xlink:href="#ArialMT-65"/>
      <use x="218.466797" xlink:href="#ArialMT-73"/>
      <use x="268.466797" xlink:href="#ArialMT-74"/>
      <use x="296.25" xlink:href="#ArialMT-65"/>
      <use x="351.865234" xlink:href="#ArialMT-70"/>
     </g>
    </g>
   </g>
   <g id="matplotlib.axis_2">
    <g id="ytick_1">
     <g id="line2d_7">
      <path clip-path="url(#p1d761a9b6e)" d="M 52.65 285.238125 
L 438.66 285.238125 
" style="fill:none;stroke:#ffffff;stroke-linecap:round;"/>
     </g>
     <g id="text_8">
      <!-- 0.0 -->
      <g style="fill:#262626;" transform="translate(27.86 289.174922)scale(0.11 -0.11)">
       <defs>
        <path d="M 581 0 
L 581 641 
L 1222 641 
L 1222 0 
L 581 0 
z
" id="ArialMT-2e" transform="scale(0.015625)"/>
       </defs>
       <use xlink:href="#ArialMT-30"/>
       <use x="55.615234" xlink:href="#ArialMT-2e"/>
       <use x="83.398438" xlink:href="#ArialMT-30"/>
      </g>
     </g>
    </g>
    <g id="ytick_2">
     <g id="line2d_8">
      <path clip-path="url(#p1d761a9b6e)" d="M 52.65 246.220848 
L 438.66 246.220848 
" style="fill:none;stroke:#ffffff;stroke-linecap:round;"/>
     </g>
     <g id="text_9">
      <!-- 0.2 -->
      <g style="fill:#262626;" transform="translate(27.86 250.157645)scale(0.11 -0.11)">
       <use xlink:href="#ArialMT-30"/>
       <use x="55.615234" xlink:href="#ArialMT-2e"/>
       <use x="83.398438" xlink:href="#ArialMT-32"/>
      </g>
     </g>
    </g>
    <g id="ytick_3">
     <g id="line2d_9">
      <path clip-path="url(#p1d761a9b6e)" d="M 52.65 207.203571 
L 438.66 207.203571 
" style="fill:none;stroke:#ffffff;stroke-linecap:round;"/>
     </g>
     <g id="text_10">
      <!-- 0.4 -->
      <g style="fill:#262626;" transform="translate(27.86 211.140368)scale(0.11 -0.11)">
       <use xlink:href="#ArialMT-30"/>
       <use x="55.615234" xlink:href="#ArialMT-2e"/>
       <use x="83.398438" xlink:href="#ArialMT-34"/>
      </g>
     </g>
    </g>
    <g id="ytick_4">
     <g id="line2d_10">
      <path clip-path="url(#p1d761a9b6e)" d="M 52.65 168.186294 
L 438.66 168.186294 
" style="fill:none;stroke:#ffffff;stroke-linecap:round;"/>
     </g>
     <g id="text_11">
      <!-- 0.6 -->
      <g style="fill:#262626;" transform="translate(27.86 172.12309)scale(0.11 -0.11)">
       <defs>
        <path d="M 3184 3459 
L 2625 3416 
Q 2550 3747 2413 3897 
Q 2184 4138 1850 4138 
Q 1581 4138 1378 3988 
Q 1113 3794 959 3422 
Q 806 3050 800 2363 
Q 1003 2672 1297 2822 
Q 1591 2972 1913 2972 
Q 2475 2972 2870 2558 
Q 3266 2144 3266 1488 
Q 3266 1056 3080 686 
Q 2894 316 2569 119 
Q 2244 -78 1831 -78 
Q 1128 -78 684 439 
Q 241 956 241 2144 
Q 241 3472 731 4075 
Q 1159 4600 1884 4600 
Q 2425 4600 2770 4297 
Q 3116 3994 3184 3459 
z
M 888 1484 
Q 888 1194 1011 928 
Q 1134 663 1356 523 
Q 1578 384 1822 384 
Q 2178 384 2434 671 
Q 2691 959 2691 1453 
Q 2691 1928 2437 2201 
Q 2184 2475 1800 2475 
Q 1419 2475 1153 2201 
Q 888 1928 888 1484 
z
" id="ArialMT-36" transform="scale(0.015625)"/>
       </defs>
       <use xlink:href="#ArialMT-30"/>
       <use x="55.615234" xlink:href="#ArialMT-2e"/>
       <use x="83.398438" xlink:href="#ArialMT-36"/>
      </g>
     </g>
    </g>
    <g id="ytick_5">
     <g id="line2d_11">
      <path clip-path="url(#p1d761a9b6e)" d="M 52.65 129.169016 
L 438.66 129.169016 
" style="fill:none;stroke:#ffffff;stroke-linecap:round;"/>
     </g>
     <g id="text_12">
      <!-- 0.8 -->
      <g style="fill:#262626;" transform="translate(27.86 133.105813)scale(0.11 -0.11)">
       <defs>
        <path d="M 1131 2484 
Q 781 2613 612 2850 
Q 444 3088 444 3419 
Q 444 3919 803 4259 
Q 1163 4600 1759 4600 
Q 2359 4600 2725 4251 
Q 3091 3903 3091 3403 
Q 3091 3084 2923 2848 
Q 2756 2613 2416 2484 
Q 2838 2347 3058 2040 
Q 3278 1734 3278 1309 
Q 3278 722 2862 322 
Q 2447 -78 1769 -78 
Q 1091 -78 675 323 
Q 259 725 259 1325 
Q 259 1772 486 2073 
Q 713 2375 1131 2484 
z
M 1019 3438 
Q 1019 3113 1228 2906 
Q 1438 2700 1772 2700 
Q 2097 2700 2305 2904 
Q 2513 3109 2513 3406 
Q 2513 3716 2298 3927 
Q 2084 4138 1766 4138 
Q 1444 4138 1231 3931 
Q 1019 3725 1019 3438 
z
M 838 1322 
Q 838 1081 952 856 
Q 1066 631 1291 507 
Q 1516 384 1775 384 
Q 2178 384 2440 643 
Q 2703 903 2703 1303 
Q 2703 1709 2433 1975 
Q 2163 2241 1756 2241 
Q 1359 2241 1098 1978 
Q 838 1716 838 1322 
z
" id="ArialMT-38" transform="scale(0.015625)"/>
       </defs>
       <use xlink:href="#ArialMT-30"/>
       <use x="55.615234" xlink:href="#ArialMT-2e"/>
       <use x="83.398438" xlink:href="#ArialMT-38"/>
      </g>
     </g>
    </g>
    <g id="ytick_6">
     <g id="line2d_12">
      <path clip-path="url(#p1d761a9b6e)" d="M 52.65 90.151739 
L 438.66 90.151739 
" style="fill:none;stroke:#ffffff;stroke-linecap:round;"/>
     </g>
     <g id="text_13">
      <!-- 1.0 -->
      <g style="fill:#262626;" transform="translate(27.86 94.088536)scale(0.11 -0.11)">
       <use xlink:href="#ArialMT-31"/>
       <use x="55.615234" xlink:href="#ArialMT-2e"/>
       <use x="83.398438" xlink:href="#ArialMT-30"/>
      </g>
     </g>
    </g>
    <g id="ytick_7">
     <g id="line2d_13">
      <path clip-path="url(#p1d761a9b6e)" d="M 52.65 51.134462 
L 438.66 51.134462 
" style="fill:none;stroke:#ffffff;stroke-linecap:round;"/>
     </g>
     <g id="text_14">
      <!-- 1.2 -->
      <g style="fill:#262626;" transform="translate(27.86 55.071259)scale(0.11 -0.11)">
       <use xlink:href="#ArialMT-31"/>
       <use x="55.615234" xlink:href="#ArialMT-2e"/>
       <use x="83.398438" xlink:href="#ArialMT-32"/>
      </g>
     </g>
    </g>
    <g id="text_15">
     <!-- Time series -->
     <g style="fill:#262626;" transform="translate(21.475 186.36)rotate(-90)scale(0.12 -0.12)">
      <defs>
       <path id="ArialMT-20" transform="scale(0.015625)"/>
       <path d="M 416 0 
L 416 3319 
L 922 3319 
L 922 2816 
Q 1116 3169 1280 3281 
Q 1444 3394 1641 3394 
Q 1925 3394 2219 3213 
L 2025 2691 
Q 1819 2813 1613 2813 
Q 1428 2813 1281 2702 
Q 1134 2591 1072 2394 
Q 978 2094 978 1738 
L 978 0 
L 416 0 
z
" id="ArialMT-72" transform="scale(0.015625)"/>
      </defs>
      <use xlink:href="#ArialMT-54"/>
      <use x="57.333984" xlink:href="#ArialMT-69"/>
      <use x="79.550781" xlink:href="#ArialMT-6d"/>
      <use x="162.851562" xlink:href="#ArialMT-65"/>
      <use x="218.466797" xlink:href="#ArialMT-20"/>
      <use x="246.25" xlink:href="#ArialMT-73"/>
      <use x="296.25" xlink:href="#ArialMT-65"/>
      <use x="351.865234" xlink:href="#ArialMT-72"/>
      <use x="385.166016" xlink:href="#ArialMT-69"/>
      <use x="407.382812" xlink:href="#ArialMT-65"/>
      <use x="462.998047" xlink:href="#ArialMT-73"/>
     </g>
    </g>
   </g>
   <g id="line2d_14">
    <path clip-path="url(#p1d761a9b6e)" d="M 52.65 142.932723 
L 54.96606 107.97401 
L 56.5101 89.525745 
L 57.28212 82.286376 
L 58.05414 76.418962 
L 58.82616 71.91149 
L 59.59818 68.707573 
L 60.3702 66.69642 
L 61.14222 65.699648 
L 61.91424 65.451729 
L 62.68626 65.577524 
L 63.45828 65.58612 
L 64.2303 64.915496 
L 65.00232 63.058898 
L 65.77434 59.763248 
L 68.0904 46.360662 
L 68.86242 44.709708 
L 69.63444 46.13532 
L 70.40646 50.562769 
L 71.17848 57.349626 
L 72.72252 74.780955 
L 75.03858 101.567888 
L 76.58262 116.268515 
L 78.89868 134.329038 
L 80.44272 147.217225 
L 82.75878 168.230988 
L 83.5308 174.103823 
L 84.30282 178.59837 
L 85.07484 181.17838 
L 85.84686 181.273583 
L 86.61888 178.389705 
L 87.3909 172.329838 
L 88.16292 163.401263 
L 89.70696 140.345203 
L 91.251 116.464488 
L 92.79504 96.11037 
L 93.56706 87.887959 
L 94.33908 81.199641 
L 95.1111 76.152112 
L 95.88312 72.740105 
L 96.65514 70.825903 
L 97.42716 70.154127 
L 98.19918 70.374075 
L 99.74322 71.684614 
L 100.51524 71.720249 
L 101.28726 70.640111 
L 102.05928 68.080632 
L 102.8313 63.994016 
L 104.37534 53.534851 
L 105.14736 49.571405 
L 105.91938 48.199086 
L 106.6914 49.989169 
L 107.46342 54.677873 
L 108.23544 61.485913 
L 112.09554 100.923236 
L 113.63958 112.216654 
L 115.95564 126.638186 
L 116.72766 132.413371 
L 118.2717 146.246254 
L 119.81574 160.483664 
L 120.58776 166.386896 
L 121.35978 170.749285 
L 122.1318 173.022291 
L 122.90382 172.704233 
L 123.67584 169.485246 
L 124.44786 163.424786 
L 125.21988 155.010785 
L 126.76392 134.226014 
L 129.07998 102.480831 
L 130.62402 84.597195 
L 131.39604 77.336843 
L 132.16806 71.530034 
L 132.94008 67.291606 
L 133.7121 64.556525 
L 134.48412 63.094982 
L 135.25614 62.549671 
L 136.80018 62.336483 
L 137.5722 61.636198 
L 138.34422 59.937594 
L 139.11624 57.020181 
L 140.66028 48.417204 
L 141.4323 44.276995 
L 142.20432 41.821799 
L 142.97634 42.110717 
L 143.74836 45.585586 
L 144.52038 51.960756 
L 146.06442 70.195649 
L 148.38048 99.85972 
L 149.92452 116.510023 
L 151.46856 130.422067 
L 153.78462 150.464939 
L 156.10068 171.707878 
L 156.8727 177.901868 
L 157.64472 182.948471 
L 158.41674 186.31872 
L 159.18876 187.380944 
L 159.96078 185.475021 
L 160.7328 180.151801 
L 161.50482 171.500399 
L 163.04886 147.636733 
L 164.5929 122.336556 
L 166.13694 101.090858 
L 166.90896 92.707599 
L 167.68098 85.998365 
L 168.453 81.013236 
L 169.22502 77.710747 
L 169.99704 75.947762 
L 170.76906 75.487384 
L 171.54108 76.010038 
L 173.08512 78.314609 
L 173.85714 79.041749 
L 174.62916 78.70441 
L 175.40118 76.809313 
L 176.1732 73.133862 
L 177.71724 61.930553 
L 178.48926 56.563631 
L 179.26128 53.252625 
L 180.0333 52.884591 
L 180.80532 55.467887 
L 181.57734 60.363007 
L 183.12138 73.665477 
L 184.66542 87.052213 
L 185.43744 92.69733 
L 186.20946 97.405906 
L 186.98148 101.226814 
L 189.29754 110.842808 
L 190.06956 115.235109 
L 190.84158 120.926524 
L 192.38562 135.420086 
L 193.92966 150.01599 
L 194.70168 155.757699 
L 195.4737 159.754882 
L 196.24572 161.580268 
L 197.01774 160.960665 
L 197.78976 157.878445 
L 198.56178 152.621821 
L 199.3338 145.717697 
L 200.87784 129.319347 
L 205.50996 78.691112 
L 206.28198 71.731422 
L 207.054 66.084689 
L 207.82602 61.846079 
L 208.59804 58.863356 
L 209.37006 56.809193 
L 210.9141 53.745838 
L 211.68612 51.871626 
L 212.45814 49.360046 
L 213.23016 46.150617 
L 214.7742 38.729425 
L 215.54622 35.695813 
L 216.31824 34.151619 
L 217.09026 34.847814 
L 217.86228 38.298957 
L 218.6343 44.591785 
L 219.40632 53.299452 
L 220.95036 74.801874 
L 223.26642 107.580662 
L 224.81046 126.637756 
L 227.12652 151.993244 
L 229.44258 175.248138 
L 230.98662 188.347295 
L 231.75864 193.501749 
L 232.53066 197.229786 
L 233.30268 198.959106 
L 234.0747 197.951571 
L 234.84672 193.473194 
L 235.61874 185.193044 
L 236.39076 173.59244 
L 239.47884 120.136002 
L 240.25086 109.96651 
L 241.02288 101.834104 
L 241.7949 95.733345 
L 242.56692 91.555338 
L 243.33894 89.12055 
L 244.11096 88.199964 
L 244.88298 88.526685 
L 245.655 89.795736 
L 247.97106 95.280086 
L 248.74308 95.901064 
L 249.5151 94.901696 
L 250.28712 91.845394 
L 251.05914 86.681695 
L 253.3752 66.480229 
L 254.14722 62.452391 
L 254.91924 60.976246 
L 255.69126 61.684606 
L 256.46328 63.862027 
L 258.77934 72.295253 
L 259.55136 74.130183 
L 260.32338 75.087549 
L 261.0954 75.206722 
L 261.86742 74.723318 
L 262.63944 74.063674 
L 263.41146 73.825558 
L 264.18348 74.738525 
L 264.9555 77.536454 
L 265.72752 82.650993 
L 266.49954 89.876898 
L 269.58762 123.210592 
L 270.35964 129.349624 
L 271.13166 134.051116 
L 271.90368 137.371373 
L 272.6757 139.525549 
L 273.44772 140.842971 
L 277.30782 145.221898 
L 278.07984 145.783751 
L 278.85186 145.286738 
L 279.62388 142.920329 
L 280.3959 138.003446 
L 281.16792 130.446459 
L 285.02802 83.125149 
L 286.57206 69.486152 
L 288.1161 58.792622 
L 289.66014 50.346928 
L 291.20418 43.837578 
L 295.06428 30.584202 
L 295.8363 28.304878 
L 296.60832 27.756163 
L 297.38034 29.964876 
L 298.15236 35.232622 
L 298.92438 43.157969 
L 300.46842 64.13857 
L 305.10054 133.17528 
L 306.64458 152.579405 
L 308.18862 169.733006 
L 309.73266 184.887897 
L 311.2767 197.384571 
L 312.04872 202.069519 
L 312.82074 205.21257 
L 313.59276 206.240045 
L 314.36478 204.398728 
L 315.1368 198.913185 
L 315.90882 189.42284 
L 316.68084 176.506259 
L 318.9969 133.266482 
L 319.76892 121.778774 
L 320.54094 112.608383 
L 321.31296 105.716801 
L 322.08498 100.932744 
L 322.857 98.033336 
L 323.62902 96.773793 
L 324.40104 96.891146 
L 325.17306 98.099721 
L 325.94508 100.082353 
L 327.48912 104.832248 
L 328.26114 106.61666 
L 329.03316 107.189658 
L 329.80518 105.912033 
L 330.5772 102.342449 
L 331.34922 96.476209 
L 333.66528 73.747334 
L 334.4373 68.489646 
L 335.20932 65.312615 
L 335.98134 63.847065 
L 336.75336 63.478139 
L 338.2974 63.631631 
L 339.06942 63.260543 
L 339.84144 62.26376 
L 340.61346 60.609615 
L 342.1575 55.967865 
L 342.92952 53.597516 
L 343.70154 51.785234 
L 344.47356 51.168076 
L 345.24558 52.546266 
L 346.0176 56.595267 
L 346.78962 63.342556 
L 348.33366 81.660903 
L 349.8777 100.510251 
L 351.42174 116.497517 
L 352.96578 129.637651 
L 357.5979 164.732239 
L 358.36992 169.997695 
L 359.14194 174.478454 
L 359.91396 177.630399 
L 360.68598 178.737812 
L 361.458 177.040782 
L 362.23002 172.029606 
L 363.00204 163.789965 
L 364.54608 141.055721 
L 366.09012 116.970227 
L 367.63416 96.60039 
L 368.40618 88.422544 
L 369.1782 81.695606 
L 369.95022 76.431404 
L 370.72224 72.589528 
L 371.49426 70.074418 
L 372.26628 68.729685 
L 373.0383 68.325935 
L 373.81032 68.540657 
L 374.58234 68.939998 
L 375.35436 68.987357 
L 376.12638 68.112811 
L 376.8984 65.860707 
L 377.67042 62.087205 
L 379.21446 52.033815 
L 379.98648 48.144513 
L 380.7585 46.784427 
L 381.53052 48.536061 
L 382.30254 53.157631 
L 383.07456 59.922308 
L 384.6186 76.653472 
L 386.16264 93.602167 
L 387.70668 108.045119 
L 389.25072 119.552249 
L 390.79476 130.175345 
L 392.3388 142.813513 
L 394.65486 164.044586 
L 395.42688 169.885427 
L 396.1989 174.247297 
L 396.97092 176.5994 
L 397.74294 176.421957 
L 398.51496 173.330564 
L 399.28698 167.269345 
L 400.059 158.636145 
L 401.60304 136.839342 
L 403.9191 103.681753 
L 405.46314 85.760265 
L 406.23516 78.753935 
L 407.00718 73.305793 
L 407.7792 69.467276 
L 408.55122 67.130202 
L 409.32324 66.045491 
L 410.09526 65.854871 
L 411.6393 66.316519 
L 412.41132 65.932688 
L 413.18334 64.495759 
L 413.95536 61.721666 
L 414.72738 57.65135 
L 416.27142 48.137458 
L 417.04344 45.043079 
L 417.81546 44.668312 
L 418.58748 47.502656 
L 419.3595 53.247525 
L 420.13152 61.108217 
L 423.99162 105.715471 
L 425.53566 119.264683 
L 428.62374 143.413334 
L 431.71182 171.119979 
L 432.48384 176.476726 
L 433.25586 180.192102 
L 434.02788 181.66754 
L 434.7999 180.312328 
L 435.57192 175.744656 
L 436.34394 168.049063 
L 437.11596 157.866872 
L 439.43202 122.026977 
L 439.43202 122.026977 
" style="fill:none;stroke:#4c72b0;stroke-linecap:round;stroke-width:1.5;"/>
   </g>
   <g id="line2d_15">
    <path clip-path="url(#p1d761a9b6e)" d="M 52.65 130.802814 
L 54.19404 107.97401 
L 55.73808 89.525745 
L 56.5101 82.286376 
L 57.28212 76.418962 
L 58.05414 71.91149 
L 58.82616 68.707573 
L 59.59818 66.69642 
L 60.3702 65.699648 
L 61.14222 65.451729 
L 61.91424 65.577524 
L 62.68626 65.58612 
L 63.45828 64.915496 
L 64.2303 63.058898 
L 65.00232 59.763248 
L 67.31838 46.360662 
L 68.0904 44.709708 
L 68.86242 46.13532 
L 69.63444 50.562769 
L 70.40646 57.349626 
L 71.9505 74.780955 
L 74.26656 101.567888 
L 75.8106 116.268515 
L 78.12666 134.329038 
L 79.6707 147.217225 
L 81.98676 168.230988 
L 82.75878 174.103823 
L 83.5308 178.59837 
L 84.30282 181.17838 
L 85.07484 181.273583 
L 85.84686 178.389705 
L 86.61888 172.329838 
L 87.3909 163.401263 
L 88.93494 140.345203 
L 90.47898 116.464488 
L 92.02302 96.11037 
L 92.79504 87.887959 
L 93.56706 81.199641 
L 94.33908 76.152112 
L 95.1111 72.740105 
L 95.88312 70.825903 
L 96.65514 70.154127 
L 97.42716 70.374075 
L 98.9712 71.684614 
L 99.74322 71.720249 
L 100.51524 70.640111 
L 101.28726 68.080632 
L 102.05928 63.994016 
L 103.60332 53.534851 
L 104.37534 49.571405 
L 105.14736 48.199086 
L 105.91938 49.989169 
L 106.6914 54.677873 
L 107.46342 61.485913 
L 111.32352 100.923236 
L 112.86756 112.216654 
L 115.18362 126.638186 
L 115.95564 132.413371 
L 117.49968 146.246254 
L 119.04372 160.483664 
L 119.81574 166.386896 
L 120.58776 170.749285 
L 121.35978 173.022291 
L 122.1318 172.704233 
L 122.90382 169.485246 
L 123.67584 163.424786 
L 124.44786 155.010785 
L 125.9919 134.226014 
L 128.30796 102.480831 
L 129.852 84.597195 
L 130.62402 77.336843 
L 131.39604 71.530034 
L 132.16806 67.291606 
L 132.94008 64.556525 
L 133.7121 63.094982 
L 134.48412 62.549671 
L 136.02816 62.336483 
L 136.80018 61.636198 
L 137.5722 59.937594 
L 138.34422 57.020181 
L 139.88826 48.417204 
L 140.66028 44.276995 
L 141.4323 41.821799 
L 142.20432 42.110717 
L 142.97634 45.585586 
L 143.74836 51.960756 
L 145.2924 70.195649 
L 147.60846 99.85972 
L 149.1525 116.510023 
L 150.69654 130.422067 
L 153.0126 150.464939 
L 155.32866 171.707878 
L 156.10068 177.901868 
L 156.8727 182.948471 
L 157.64472 186.31872 
L 158.41674 187.380944 
L 159.18876 185.475021 
L 159.96078 180.151801 
L 160.7328 171.500399 
L 162.27684 147.636733 
L 163.82088 122.336556 
L 165.36492 101.090858 
L 166.13694 92.707599 
L 166.90896 85.998365 
L 167.68098 81.013236 
L 168.453 77.710747 
L 169.22502 75.947762 
L 169.99704 75.487384 
L 170.76906 76.010038 
L 172.3131 78.314609 
L 173.08512 79.041749 
L 173.85714 78.70441 
L 174.62916 76.809313 
L 175.40118 73.133862 
L 176.94522 61.930553 
L 177.71724 56.563631 
L 178.48926 53.252625 
L 179.26128 52.884591 
L 180.0333 55.467887 
L 180.80532 60.363007 
L 182.34936 73.665477 
L 183.8934 87.052213 
L 184.66542 92.69733 
L 185.43744 97.405906 
L 186.20946 101.226814 
L 188.52552 110.842808 
L 189.29754 115.235109 
L 190.06956 120.926524 
L 191.6136 135.420086 
L 193.15764 150.01599 
L 193.92966 155.757699 
L 194.70168 159.754882 
L 195.4737 161.580268 
L 196.24572 160.960665 
L 197.01774 157.878445 
L 197.78976 152.621821 
L 198.56178 145.717697 
L 200.10582 129.319347 
L 204.73794 78.691112 
L 205.50996 71.731422 
L 206.28198 66.084689 
L 207.054 61.846079 
L 207.82602 58.863356 
L 208.59804 56.809193 
L 210.14208 53.745838 
L 210.9141 51.871626 
L 211.68612 49.360046 
L 212.45814 46.150617 
L 214.00218 38.729425 
L 214.7742 35.695813 
L 215.54622 34.151619 
L 216.31824 34.847814 
L 217.09026 38.298957 
L 217.86228 44.591785 
L 218.6343 53.299452 
L 220.17834 74.801874 
L 222.4944 107.580662 
L 224.03844 126.637756 
L 226.3545 151.993244 
L 228.67056 175.248138 
L 230.2146 188.347295 
L 230.98662 193.501749 
L 231.75864 197.229786 
L 232.53066 198.959106 
L 233.30268 197.951571 
L 234.0747 193.473194 
L 234.84672 185.193044 
L 235.61874 173.59244 
L 238.70682 120.136002 
L 239.47884 109.96651 
L 240.25086 101.834104 
L 241.02288 95.733345 
L 241.7949 91.555338 
L 242.56692 89.12055 
L 243.33894 88.199964 
L 244.11096 88.526685 
L 244.88298 89.795736 
L 247.19904 95.280086 
L 247.97106 95.901064 
L 248.74308 94.901696 
L 249.5151 91.845394 
L 250.28712 86.681695 
L 252.60318 66.480229 
L 253.3752 62.452391 
L 254.14722 60.976246 
L 254.91924 61.684606 
L 255.69126 63.862027 
L 258.00732 72.295253 
L 258.77934 74.130183 
L 259.55136 75.087549 
L 260.32338 75.206722 
L 261.0954 74.723318 
L 261.86742 74.063674 
L 262.63944 73.825558 
L 263.41146 74.738525 
L 264.18348 77.536454 
L 264.9555 82.650993 
L 265.72752 89.876898 
L 268.8156 123.210592 
L 269.58762 129.349624 
L 270.35964 134.051116 
L 271.13166 137.371373 
L 271.90368 139.525549 
L 272.6757 140.842971 
L 276.5358 145.221898 
L 277.30782 145.783751 
L 278.07984 145.286738 
L 278.85186 142.920329 
L 279.62388 138.003446 
L 280.3959 130.446459 
L 284.256 83.125149 
L 285.80004 69.486152 
L 287.34408 58.792622 
L 288.88812 50.346928 
L 290.43216 43.837578 
L 294.29226 30.584202 
L 295.06428 28.304878 
L 295.8363 27.756163 
L 296.60832 29.964876 
L 297.38034 35.232622 
L 298.15236 43.157969 
L 299.6964 64.13857 
L 304.32852 133.17528 
L 305.87256 152.579405 
L 307.4166 169.733006 
L 308.96064 184.887897 
L 310.50468 197.384571 
L 311.2767 202.069519 
L 312.04872 205.21257 
L 312.82074 206.240045 
L 313.59276 204.398728 
L 314.36478 198.913185 
L 315.1368 189.42284 
L 315.90882 176.506259 
L 318.22488 133.266482 
L 318.9969 121.778774 
L 319.76892 112.608383 
L 320.54094 105.716801 
L 321.31296 100.932744 
L 322.08498 98.033336 
L 322.857 96.773793 
L 323.62902 96.891146 
L 324.40104 98.099721 
L 325.17306 100.082353 
L 326.7171 104.832248 
L 327.48912 106.61666 
L 328.26114 107.189658 
L 329.03316 105.912033 
L 329.80518 102.342449 
L 330.5772 96.476209 
L 332.89326 73.747334 
L 333.66528 68.489646 
L 334.4373 65.312615 
L 335.20932 63.847065 
L 335.98134 63.478139 
L 337.52538 63.631631 
L 338.2974 63.260543 
L 339.06942 62.26376 
L 339.84144 60.609615 
L 341.38548 55.967865 
L 342.1575 53.597516 
L 342.92952 51.785234 
L 343.70154 51.168076 
L 344.47356 52.546266 
L 345.24558 56.595267 
L 346.0176 63.342556 
L 347.56164 81.660903 
L 349.10568 100.510251 
L 350.64972 116.497517 
L 352.19376 129.637651 
L 356.82588 164.732239 
L 357.5979 169.997695 
L 358.36992 174.478454 
L 359.14194 177.630399 
L 359.91396 178.737812 
L 360.68598 177.040782 
L 361.458 172.029606 
L 362.23002 163.789965 
L 363.77406 141.055721 
L 365.3181 116.970227 
L 366.86214 96.60039 
L 367.63416 88.422544 
L 368.40618 81.695606 
L 369.1782 76.431404 
L 369.95022 72.589528 
L 370.72224 70.074418 
L 371.49426 68.729685 
L 372.26628 68.325935 
L 373.0383 68.540657 
L 373.81032 68.939998 
L 374.58234 68.987357 
L 375.35436 68.112811 
L 376.12638 65.860707 
L 376.8984 62.087205 
L 378.44244 52.033815 
L 379.21446 48.144513 
L 379.98648 46.784427 
L 380.7585 48.536061 
L 381.53052 53.157631 
L 382.30254 59.922308 
L 383.84658 76.653472 
L 385.39062 93.602167 
L 386.93466 108.045119 
L 388.4787 119.552249 
L 390.02274 130.175345 
L 391.56678 142.813513 
L 393.88284 164.044586 
L 394.65486 169.885427 
L 395.42688 174.247297 
L 396.1989 176.5994 
L 396.97092 176.421957 
L 397.74294 173.330564 
L 398.51496 167.269345 
L 399.28698 158.636145 
L 400.83102 136.839342 
L 403.14708 103.681753 
L 404.69112 85.760265 
L 405.46314 78.753935 
L 406.23516 73.305793 
L 407.00718 69.467276 
L 407.7792 67.130202 
L 408.55122 66.045491 
L 409.32324 65.854871 
L 410.86728 66.316519 
L 411.6393 65.932688 
L 412.41132 64.495759 
L 413.18334 61.721666 
L 413.95536 57.65135 
L 415.4994 48.137458 
L 416.27142 45.043079 
L 417.04344 44.668312 
L 417.81546 47.502656 
L 418.58748 53.247525 
L 419.3595 61.108217 
L 423.2196 105.715471 
L 424.76364 119.264683 
L 427.85172 143.413334 
L 430.9398 171.119979 
L 431.71182 176.476726 
L 432.48384 180.192102 
L 433.25586 181.66754 
L 434.02788 180.312328 
L 434.7999 175.744656 
L 435.57192 168.049063 
L 436.34394 157.866872 
L 439.43202 110.794501 
L 439.43202 110.794501 
" style="fill:none;stroke:#dd8452;stroke-linecap:round;stroke-width:1.5;"/>
   </g>
   <g id="line2d_16">
    <path clip-path="url(#p1d761a9b6e)" d="M 52.65 130.807576 
L 54.19404 107.953954 
L 55.73808 89.518071 
L 56.5101 82.289774 
L 57.28212 76.42516 
L 58.05414 71.918505 
L 58.82616 68.714964 
L 59.59818 66.702656 
L 60.3702 65.699456 
L 61.14222 65.432449 
L 62.68626 65.527914 
L 63.45828 64.87864 
L 64.2303 63.065119 
L 65.00232 59.805633 
L 67.31838 46.240771 
L 68.0904 44.633155 
L 68.86242 46.179891 
L 69.63444 50.618066 
L 70.40646 57.342518 
L 71.9505 74.79354 
L 74.26656 101.530637 
L 75.8106 116.242255 
L 78.12666 134.322437 
L 79.6707 147.248375 
L 81.98676 168.24831 
L 82.75878 174.097117 
L 83.5308 178.568881 
L 84.30282 181.138499 
L 85.07484 181.258165 
L 85.84686 178.412657 
L 86.61888 172.353698 
L 87.3909 163.388937 
L 88.93494 140.347761 
L 90.47898 116.477851 
L 92.02302 96.120137 
L 92.79504 87.892015 
L 93.56706 81.194334 
L 94.33908 76.146339 
L 95.1111 72.740854 
L 95.88312 70.832144 
L 96.65514 70.167201 
L 97.42716 70.389164 
L 98.9712 71.653055 
L 99.74322 71.672978 
L 100.51524 70.608329 
L 101.28726 68.091175 
L 102.05928 64.049186 
L 103.60332 53.510411 
L 104.37534 49.476716 
L 105.14736 48.157319 
L 105.91938 50.040925 
L 106.6914 54.715606 
L 107.46342 61.467906 
L 111.32352 100.886943 
L 112.86756 112.197334 
L 115.18362 126.648805 
L 115.95564 132.434859 
L 117.49968 146.297457 
L 119.04372 160.48659 
L 119.81574 166.38317 
L 120.58776 170.741983 
L 121.35978 173.01745 
L 122.1318 172.718396 
L 122.90382 169.510227 
L 123.67584 163.432109 
L 124.44786 155.005007 
L 125.9919 134.26853 
L 128.30796 102.512046 
L 129.852 84.610383 
L 130.62402 77.331991 
L 131.39604 71.529274 
L 132.16806 67.302744 
L 132.94008 64.564186 
L 133.7121 63.094566 
L 134.48412 62.543473 
L 136.02816 62.297637 
L 136.80018 61.590226 
L 137.5722 59.905353 
L 138.34422 57.020022 
L 139.11624 53.028356 
L 140.66028 44.24956 
L 141.4323 41.7494 
L 142.20432 42.064419 
L 142.97634 45.602818 
L 143.74836 52.003473 
L 145.2924 70.206719 
L 147.60846 99.848186 
L 149.1525 116.477712 
L 150.69654 130.401164 
L 153.0126 150.489328 
L 155.32866 171.745554 
L 156.10068 177.90667 
L 156.8727 182.91374 
L 157.64472 186.262377 
L 158.41674 187.349511 
L 159.18876 185.5022 
L 159.96078 180.20355 
L 160.7328 171.505755 
L 162.27684 147.627551 
L 163.82088 122.339632 
L 165.36492 101.085515 
L 166.13694 92.710277 
L 166.90896 85.998455 
L 167.68098 81.006999 
L 168.453 77.703196 
L 169.22502 75.946317 
L 169.99704 75.500299 
L 170.76906 76.036615 
L 172.3131 78.306305 
L 173.08512 79.007755 
L 173.85714 78.672762 
L 174.62916 76.809862 
L 175.40118 73.18229 
L 176.1732 67.977745 
L 177.71724 56.487488 
L 178.48926 53.188061 
L 179.26128 52.930848 
L 180.0333 55.52136 
L 180.80532 60.332238 
L 182.34936 73.655581 
L 183.8934 87.032534 
L 184.66542 92.664809 
L 185.43744 97.376999 
L 186.20946 101.213939 
L 188.52552 110.857613 
L 189.29754 115.240066 
L 190.06956 120.942792 
L 191.6136 135.448772 
L 193.15764 149.997404 
L 193.92966 155.771426 
L 194.70168 159.780995 
L 195.4737 161.605636 
L 196.24572 160.986912 
L 197.01774 157.898675 
L 197.78976 152.635247 
L 198.56178 145.742779 
L 200.10582 129.367442 
L 204.73794 78.638428 
L 205.50996 71.701017 
L 206.28198 66.10028 
L 207.054 61.847993 
L 207.82602 58.834686 
L 208.59804 56.782672 
L 210.14208 53.729111 
L 210.9141 51.850227 
L 211.68612 49.340846 
L 212.45814 46.142063 
L 214.00218 38.752819 
L 214.7742 35.726861 
L 215.54622 34.169249 
L 216.31824 34.822578 
L 217.09026 38.234912 
L 217.86228 44.558585 
L 218.6343 53.339676 
L 220.17834 74.78809 
L 222.4944 107.582623 
L 224.03844 126.630684 
L 226.3545 151.986572 
L 228.67056 175.280947 
L 230.2146 188.365088 
L 230.98662 193.481765 
L 231.75864 197.175734 
L 232.53066 198.907227 
L 233.30268 197.952288 
L 234.0747 193.534657 
L 234.84672 185.241789 
L 235.61874 173.569294 
L 238.70682 120.107959 
L 239.47884 109.940562 
L 240.25086 101.831805 
L 241.02288 95.7405 
L 241.7949 91.553059 
L 242.56692 89.10597 
L 243.33894 88.184228 
L 244.11096 88.524945 
L 244.88298 89.819791 
L 247.19904 95.267841 
L 247.97106 95.867737 
L 248.74308 94.88492 
L 249.5151 91.870748 
L 250.28712 86.751497 
L 252.60318 66.405049 
L 253.3752 62.490354 
L 254.14722 61.055848 
L 254.91924 61.649507 
L 255.69126 63.78058 
L 258.00732 72.298247 
L 258.77934 74.118124 
L 259.55136 75.073939 
L 260.32338 75.205337 
L 261.0954 74.749341 
L 261.86742 74.120443 
L 262.63944 73.88072 
L 263.41146 74.730162 
L 264.18348 77.450077 
L 264.9555 82.599219 
L 265.72752 89.959861 
L 268.8156 123.2418 
L 269.58762 129.388492 
L 270.35964 134.066593 
L 271.13166 137.376123 
L 271.90368 139.521949 
L 272.6757 140.821426 
L 277.30782 145.704293 
L 278.07984 145.285227 
L 278.85186 143.033339 
L 279.62388 138.143831 
L 280.3959 130.448215 
L 284.256 83.087649 
L 285.80004 69.511138 
L 287.34408 58.842434 
L 288.88812 50.368315 
L 290.43216 43.81424 
L 291.9762 38.703782 
L 293.52024 33.611317 
L 294.29226 30.714181 
L 295.06428 28.249165 
L 295.8363 27.581326 
L 296.60832 29.912972 
L 297.38034 35.317489 
L 298.15236 43.179773 
L 299.6964 64.124348 
L 303.5565 122.607822 
L 305.10054 143.199974 
L 306.64458 161.387237 
L 308.18862 177.53308 
L 309.73266 191.600608 
L 310.50468 197.43946 
L 311.2767 202.10884 
L 312.04872 205.21025 
L 312.82074 206.199776 
L 313.59276 204.367491 
L 314.36478 198.932199 
L 315.1368 189.450538 
L 316.68084 161.664534 
L 318.22488 133.313834 
L 318.9969 121.772277 
L 319.76892 112.592005 
L 320.54094 105.722239 
L 321.31296 100.95161 
L 322.08498 98.042052 
L 322.857 96.764775 
L 323.62902 96.87543 
L 324.40104 98.092117 
L 325.17306 100.097944 
L 326.7171 104.846378 
L 327.48912 106.583083 
L 328.26114 107.13519 
L 329.03316 105.88576 
L 329.80518 102.36126 
L 330.5772 96.521977 
L 332.89326 73.714113 
L 333.66528 68.572761 
L 334.4373 65.366098 
L 335.20932 63.79164 
L 335.98134 63.434509 
L 337.52538 63.679262 
L 338.2974 63.290816 
L 339.06942 62.276896 
L 339.84144 60.616422 
L 341.38548 56.025691 
L 342.1575 53.701309 
L 342.92952 51.889547 
L 343.70154 51.173585 
L 344.47356 52.393108 
L 345.24558 56.425839 
L 346.0176 63.388645 
L 347.56164 81.634266 
L 349.10568 100.525841 
L 350.64972 116.487009 
L 352.19376 129.614288 
L 356.82588 164.720735 
L 357.5979 169.95805 
L 358.36992 174.415388 
L 359.14194 177.574965 
L 359.91396 178.730845 
L 360.68598 177.092839 
L 361.458 172.083922 
L 362.23002 163.769242 
L 363.77406 141.02859 
L 365.3181 116.960843 
L 366.86214 96.581256 
L 367.63416 88.417112 
L 368.40618 81.695319 
L 369.1782 76.431115 
L 369.95022 72.590026 
L 370.72224 70.077326 
L 371.49426 68.73532 
L 372.26628 68.327436 
L 373.0383 68.522607 
L 373.81032 68.895589 
L 374.58234 68.934859 
L 375.35436 68.083726 
L 376.12638 65.873584 
L 376.8984 62.136159 
L 378.44244 51.988171 
L 379.21446 48.027204 
L 379.98648 46.738497 
L 380.7585 48.600891 
L 381.53052 53.19901 
L 382.30254 59.898432 
L 383.84658 76.661048 
L 385.39062 93.573174 
L 386.93466 108.008858 
L 388.4787 119.544581 
L 390.02274 130.177125 
L 391.56678 142.8539 
L 393.88284 164.053155 
L 394.65486 169.879628 
L 395.42688 174.227983 
L 396.1989 176.574974 
L 396.97092 176.418883 
L 397.74294 173.352063 
L 398.51496 167.282829 
L 399.28698 158.626591 
L 400.83102 136.863581 
L 403.14708 103.704053 
L 404.69112 85.768379 
L 405.46314 78.748862 
L 406.23516 73.303717 
L 407.00718 69.474436 
L 407.7792 67.137769 
L 408.55122 66.052025 
L 409.32324 65.858329 
L 410.86728 66.277596 
L 411.6393 65.883016 
L 412.41132 64.462341 
L 413.18334 61.727193 
L 413.95536 57.695264 
L 415.4994 48.10742 
L 416.27142 44.955607 
L 417.04344 44.622152 
L 417.81546 47.537495 
L 418.58748 53.291012 
L 419.3595 61.116269 
L 423.2196 105.681951 
L 424.76364 119.239017 
L 427.85172 143.440289 
L 430.9398 171.127594 
L 431.71182 176.456238 
L 432.48384 180.153853 
L 433.25586 181.643815 
L 434.02788 180.330918 
L 434.7999 175.781733 
L 435.57192 168.05266 
L 437.11596 146.183614 
L 439.43202 110.801706 
L 439.43202 110.801706 
" style="fill:none;stroke:#55a868;stroke-linecap:round;stroke-width:1.5;"/>
   </g>
   <g id="patch_3">
    <path d="M 52.65 298.20375 
L 52.65 12.96 
" style="fill:none;stroke:#ffffff;stroke-linecap:square;stroke-linejoin:miter;stroke-width:1.25;"/>
   </g>
   <g id="patch_4">
    <path d="M 438.66 298.20375 
L 438.66 12.96 
" style="fill:none;stroke:#ffffff;stroke-linecap:square;stroke-linejoin:miter;stroke-width:1.25;"/>
   </g>
   <g id="patch_5">
    <path d="M 52.65 298.20375 
L 438.66 298.20375 
" style="fill:none;stroke:#ffffff;stroke-linecap:square;stroke-linejoin:miter;stroke-width:1.25;"/>
   </g>
   <g id="patch_6">
    <path d="M 52.65 12.96 
L 438.66 12.96 
" style="fill:none;stroke:#ffffff;stroke-linecap:square;stroke-linejoin:miter;stroke-width:1.25;"/>
   </g>
   <g id="legend_1">
    <g id="patch_7">
     <path d="M 60.35 292.70375 
L 142.018125 292.70375 
Q 144.218125 292.70375 144.218125 290.50375 
L 144.218125 244.795312 
Q 144.218125 242.595312 142.018125 242.595312 
L 60.35 242.595312 
Q 58.15 242.595312 58.15 244.795312 
L 58.15 290.50375 
Q 58.15 292.70375 60.35 292.70375 
z
" style="fill:#eaeaf2;opacity:0.8;stroke:#cccccc;stroke-linejoin:miter;"/>
    </g>
    <g id="line2d_17">
     <path d="M 62.55 251.018906 
L 84.55 251.018906 
" style="fill:none;stroke:#4c72b0;stroke-linecap:round;stroke-width:1.5;"/>
    </g>
    <g id="line2d_18"/>
    <g id="text_16">
     <!-- Input -->
     <g style="fill:#262626;" transform="translate(93.35 254.868906)scale(0.11 -0.11)">
      <defs>
       <path d="M 597 0 
L 597 4581 
L 1203 4581 
L 1203 0 
L 597 0 
z
" id="ArialMT-49" transform="scale(0.015625)"/>
       <path d="M 422 0 
L 422 3319 
L 928 3319 
L 928 2847 
Q 1294 3394 1984 3394 
Q 2284 3394 2536 3286 
Q 2788 3178 2913 3003 
Q 3038 2828 3088 2588 
Q 3119 2431 3119 2041 
L 3119 0 
L 2556 0 
L 2556 2019 
Q 2556 2363 2490 2533 
Q 2425 2703 2258 2804 
Q 2091 2906 1866 2906 
Q 1506 2906 1245 2678 
Q 984 2450 984 1813 
L 984 0 
L 422 0 
z
" id="ArialMT-6e" transform="scale(0.015625)"/>
       <path d="M 2597 0 
L 2597 488 
Q 2209 -75 1544 -75 
Q 1250 -75 995 37 
Q 741 150 617 320 
Q 494 491 444 738 
Q 409 903 409 1263 
L 409 3319 
L 972 3319 
L 972 1478 
Q 972 1038 1006 884 
Q 1059 663 1231 536 
Q 1403 409 1656 409 
Q 1909 409 2131 539 
Q 2353 669 2445 892 
Q 2538 1116 2538 1541 
L 2538 3319 
L 3100 3319 
L 3100 0 
L 2597 0 
z
" id="ArialMT-75" transform="scale(0.015625)"/>
      </defs>
      <use xlink:href="#ArialMT-49"/>
      <use x="27.783203" xlink:href="#ArialMT-6e"/>
      <use x="83.398438" xlink:href="#ArialMT-70"/>
      <use x="139.013672" xlink:href="#ArialMT-75"/>
      <use x="194.628906" xlink:href="#ArialMT-74"/>
     </g>
    </g>
    <g id="line2d_19">
     <path d="M 62.55 266.57875 
L 84.55 266.57875 
" style="fill:none;stroke:#dd8452;stroke-linecap:round;stroke-width:1.5;"/>
    </g>
    <g id="line2d_20"/>
    <g id="text_17">
     <!-- Target -->
     <g style="fill:#262626;" transform="translate(93.35 270.42875)scale(0.11 -0.11)">
      <defs>
       <path d="M 2588 409 
Q 2275 144 1986 34 
Q 1697 -75 1366 -75 
Q 819 -75 525 192 
Q 231 459 231 875 
Q 231 1119 342 1320 
Q 453 1522 633 1644 
Q 813 1766 1038 1828 
Q 1203 1872 1538 1913 
Q 2219 1994 2541 2106 
Q 2544 2222 2544 2253 
Q 2544 2597 2384 2738 
Q 2169 2928 1744 2928 
Q 1347 2928 1158 2789 
Q 969 2650 878 2297 
L 328 2372 
Q 403 2725 575 2942 
Q 747 3159 1072 3276 
Q 1397 3394 1825 3394 
Q 2250 3394 2515 3294 
Q 2781 3194 2906 3042 
Q 3031 2891 3081 2659 
Q 3109 2516 3109 2141 
L 3109 1391 
Q 3109 606 3145 398 
Q 3181 191 3288 0 
L 2700 0 
Q 2613 175 2588 409 
z
M 2541 1666 
Q 2234 1541 1622 1453 
Q 1275 1403 1131 1340 
Q 988 1278 909 1158 
Q 831 1038 831 891 
Q 831 666 1001 516 
Q 1172 366 1500 366 
Q 1825 366 2078 508 
Q 2331 650 2450 897 
Q 2541 1088 2541 1459 
L 2541 1666 
z
" id="ArialMT-61" transform="scale(0.015625)"/>
       <path d="M 319 -275 
L 866 -356 
Q 900 -609 1056 -725 
Q 1266 -881 1628 -881 
Q 2019 -881 2231 -725 
Q 2444 -569 2519 -288 
Q 2563 -116 2559 434 
Q 2191 0 1641 0 
Q 956 0 581 494 
Q 206 988 206 1678 
Q 206 2153 378 2554 
Q 550 2956 876 3175 
Q 1203 3394 1644 3394 
Q 2231 3394 2613 2919 
L 2613 3319 
L 3131 3319 
L 3131 450 
Q 3131 -325 2973 -648 
Q 2816 -972 2473 -1159 
Q 2131 -1347 1631 -1347 
Q 1038 -1347 672 -1080 
Q 306 -813 319 -275 
z
M 784 1719 
Q 784 1066 1043 766 
Q 1303 466 1694 466 
Q 2081 466 2343 764 
Q 2606 1063 2606 1700 
Q 2606 2309 2336 2618 
Q 2066 2928 1684 2928 
Q 1309 2928 1046 2623 
Q 784 2319 784 1719 
z
" id="ArialMT-67" transform="scale(0.015625)"/>
      </defs>
      <use xlink:href="#ArialMT-54"/>
      <use x="49.958984" xlink:href="#ArialMT-61"/>
      <use x="105.574219" xlink:href="#ArialMT-72"/>
      <use x="138.875" xlink:href="#ArialMT-67"/>
      <use x="194.490234" xlink:href="#ArialMT-65"/>
      <use x="250.105469" xlink:href="#ArialMT-74"/>
     </g>
    </g>
    <g id="line2d_21">
     <path d="M 62.55 282.2675 
L 84.55 282.2675 
" style="fill:none;stroke:#55a868;stroke-linecap:round;stroke-width:1.5;"/>
    </g>
    <g id="line2d_22"/>
    <g id="text_18">
     <!-- Predicted -->
     <g style="fill:#262626;" transform="translate(93.35 286.1175)scale(0.11 -0.11)">
      <defs>
       <path d="M 494 0 
L 494 4581 
L 2222 4581 
Q 2678 4581 2919 4538 
Q 3256 4481 3484 4323 
Q 3713 4166 3852 3881 
Q 3991 3597 3991 3256 
Q 3991 2672 3619 2267 
Q 3247 1863 2275 1863 
L 1100 1863 
L 1100 0 
L 494 0 
z
M 1100 2403 
L 2284 2403 
Q 2872 2403 3119 2622 
Q 3366 2841 3366 3238 
Q 3366 3525 3220 3729 
Q 3075 3934 2838 4000 
Q 2684 4041 2272 4041 
L 1100 4041 
L 1100 2403 
z
" id="ArialMT-50" transform="scale(0.015625)"/>
       <path d="M 2575 0 
L 2575 419 
Q 2259 -75 1647 -75 
Q 1250 -75 917 144 
Q 584 363 401 755 
Q 219 1147 219 1656 
Q 219 2153 384 2558 
Q 550 2963 881 3178 
Q 1213 3394 1622 3394 
Q 1922 3394 2156 3267 
Q 2391 3141 2538 2938 
L 2538 4581 
L 3097 4581 
L 3097 0 
L 2575 0 
z
M 797 1656 
Q 797 1019 1065 703 
Q 1334 388 1700 388 
Q 2069 388 2326 689 
Q 2584 991 2584 1609 
Q 2584 2291 2321 2609 
Q 2059 2928 1675 2928 
Q 1300 2928 1048 2622 
Q 797 2316 797 1656 
z
" id="ArialMT-64" transform="scale(0.015625)"/>
       <path d="M 2588 1216 
L 3141 1144 
Q 3050 572 2676 248 
Q 2303 -75 1759 -75 
Q 1078 -75 664 370 
Q 250 816 250 1647 
Q 250 2184 428 2587 
Q 606 2991 970 3192 
Q 1334 3394 1763 3394 
Q 2303 3394 2647 3120 
Q 2991 2847 3088 2344 
L 2541 2259 
Q 2463 2594 2264 2762 
Q 2066 2931 1784 2931 
Q 1359 2931 1093 2626 
Q 828 2322 828 1663 
Q 828 994 1084 691 
Q 1341 388 1753 388 
Q 2084 388 2306 591 
Q 2528 794 2588 1216 
z
" id="ArialMT-63" transform="scale(0.015625)"/>
      </defs>
      <use xlink:href="#ArialMT-50"/>
      <use x="66.699219" xlink:href="#ArialMT-72"/>
      <use x="100" xlink:href="#ArialMT-65"/>
      <use x="155.615234" xlink:href="#ArialMT-64"/>
      <use x="211.230469" xlink:href="#ArialMT-69"/>
      <use x="233.447266" xlink:href="#ArialMT-63"/>
      <use x="283.447266" xlink:href="#ArialMT-74"/>
      <use x="311.230469" xlink:href="#ArialMT-65"/>
      <use x="366.845703" xlink:href="#ArialMT-64"/>
     </g>
    </g>
   </g>
  </g>
 </g>
 <defs>
  <clipPath id="p1d761a9b6e">
   <rect height="285.24375" width="386.01" x="52.65" y="12.96"/>
  </clipPath>
 </defs>
</svg>
