<?xml version="1.0" encoding="utf-8" standalone="no"?>
<!DOCTYPE svg PUBLIC "-//W3C//DTD SVG 1.1//EN"
  "http://www.w3.org/Graphics/SVG/1.1/DTD/svg11.dtd">
<svg height="345.6pt" version="1.1" viewBox="0 0 460.8 345.6" width="460.8pt" xmlns="http://www.w3.org/2000/svg" xmlns:xlink="http://www.w3.org/1999/xlink">
 <metadata>
  <rdf:RDF xmlns:cc="http://creativecommons.org/ns#" xmlns:dc="http://purl.org/dc/elements/1.1/" xmlns:rdf="http://www.w3.org/1999/02/22-rdf-syntax-ns#">
   <cc:Work>
    <dc:type rdf:resource="http://purl.org/dc/dcmitype/StillImage"/>
    <dc:date>2021-10-26T15:46:27.736836</dc:date>
    <dc:format>image/svg+xml</dc:format>
    <dc:creator>
     <cc:Agent>
      <dc:title>Matplotlib v3.4.1, https://matplotlib.org/</dc:title>
     </cc:Agent>
    </dc:creator>
   </cc:Work>
  </rdf:RDF>
 </metadata>
 <defs>
  <style type="text/css">*{stroke-linecap:butt;stroke-linejoin:round;}</style>
 </defs>
 <g id="figure_1">
  <g id="patch_1">
   <path d="M 0 345.6 
L 460.8 345.6 
L 460.8 0 
L 0 0 
z
" style="fill:#ffffff;"/>
  </g>
  <g id="axes_1">
   <g id="patch_2">
    <path d="M 52.65 298.20375 
L 447.84 298.20375 
L 447.84 12.96 
L 52.65 12.96 
z
" style="fill:#eaeaf2;"/>
   </g>
   <g id="matplotlib.axis_1">
    <g id="xtick_1">
     <g id="line2d_1">
      <path clip-path="url(#p7e6a3de54d)" d="M 52.65 298.20375 
L 52.65 12.96 
" style="fill:none;stroke:#ffffff;stroke-linecap:round;"/>
     </g>
     <g id="text_1">
      <!-- 0 -->
      <g style="fill:#262626;" transform="translate(49.591484 315.577344)scale(0.11 -0.11)">
       <defs>
        <path d="M 266 2259 
Q 266 3072 433 3567 
Q 600 4063 929 4331 
Q 1259 4600 1759 4600 
Q 2128 4600 2406 4451 
Q 2684 4303 2865 4023 
Q 3047 3744 3150 3342 
Q 3253 2941 3253 2259 
Q 3253 1453 3087 958 
Q 2922 463 2592 192 
Q 2263 -78 1759 -78 
Q 1097 -78 719 397 
Q 266 969 266 2259 
z
M 844 2259 
Q 844 1131 1108 757 
Q 1372 384 1759 384 
Q 2147 384 2411 759 
Q 2675 1134 2675 2259 
Q 2675 3391 2411 3762 
Q 2147 4134 1753 4134 
Q 1366 4134 1134 3806 
Q 844 3388 844 2259 
z
" id="ArialMT-30" transform="scale(0.015625)"/>
       </defs>
       <use xlink:href="#ArialMT-30"/>
      </g>
     </g>
    </g>
    <g id="xtick_2">
     <g id="line2d_2">
      <path clip-path="url(#p7e6a3de54d)" d="M 131.688 298.20375 
L 131.688 12.96 
" style="fill:none;stroke:#ffffff;stroke-linecap:round;"/>
     </g>
     <g id="text_2">
      <!-- 100 -->
      <g style="fill:#262626;" transform="translate(122.512453 315.577344)scale(0.11 -0.11)">
       <defs>
        <path d="M 2384 0 
L 1822 0 
L 1822 3584 
Q 1619 3391 1289 3197 
Q 959 3003 697 2906 
L 697 3450 
Q 1169 3672 1522 3987 
Q 1875 4303 2022 4600 
L 2384 4600 
L 2384 0 
z
" id="ArialMT-31" transform="scale(0.015625)"/>
       </defs>
       <use xlink:href="#ArialMT-31"/>
       <use x="55.615234" xlink:href="#ArialMT-30"/>
       <use x="111.230469" xlink:href="#ArialMT-30"/>
      </g>
     </g>
    </g>
    <g id="xtick_3">
     <g id="line2d_3">
      <path clip-path="url(#p7e6a3de54d)" d="M 210.726 298.20375 
L 210.726 12.96 
" style="fill:none;stroke:#ffffff;stroke-linecap:round;"/>
     </g>
     <g id="text_3">
      <!-- 200 -->
      <g style="fill:#262626;" transform="translate(201.550453 315.577344)scale(0.11 -0.11)">
       <defs>
        <path d="M 3222 541 
L 3222 0 
L 194 0 
Q 188 203 259 391 
Q 375 700 629 1000 
Q 884 1300 1366 1694 
Q 2113 2306 2375 2664 
Q 2638 3022 2638 3341 
Q 2638 3675 2398 3904 
Q 2159 4134 1775 4134 
Q 1369 4134 1125 3890 
Q 881 3647 878 3216 
L 300 3275 
Q 359 3922 746 4261 
Q 1134 4600 1788 4600 
Q 2447 4600 2831 4234 
Q 3216 3869 3216 3328 
Q 3216 3053 3103 2787 
Q 2991 2522 2730 2228 
Q 2469 1934 1863 1422 
Q 1356 997 1212 845 
Q 1069 694 975 541 
L 3222 541 
z
" id="ArialMT-32" transform="scale(0.015625)"/>
       </defs>
       <use xlink:href="#ArialMT-32"/>
       <use x="55.615234" xlink:href="#ArialMT-30"/>
       <use x="111.230469" xlink:href="#ArialMT-30"/>
      </g>
     </g>
    </g>
    <g id="xtick_4">
     <g id="line2d_4">
      <path clip-path="url(#p7e6a3de54d)" d="M 289.764 298.20375 
L 289.764 12.96 
" style="fill:none;stroke:#ffffff;stroke-linecap:round;"/>
     </g>
     <g id="text_4">
      <!-- 300 -->
      <g style="fill:#262626;" transform="translate(280.588453 315.577344)scale(0.11 -0.11)">
       <defs>
        <path d="M 269 1209 
L 831 1284 
Q 928 806 1161 595 
Q 1394 384 1728 384 
Q 2125 384 2398 659 
Q 2672 934 2672 1341 
Q 2672 1728 2419 1979 
Q 2166 2231 1775 2231 
Q 1616 2231 1378 2169 
L 1441 2663 
Q 1497 2656 1531 2656 
Q 1891 2656 2178 2843 
Q 2466 3031 2466 3422 
Q 2466 3731 2256 3934 
Q 2047 4138 1716 4138 
Q 1388 4138 1169 3931 
Q 950 3725 888 3313 
L 325 3413 
Q 428 3978 793 4289 
Q 1159 4600 1703 4600 
Q 2078 4600 2393 4439 
Q 2709 4278 2876 4000 
Q 3044 3722 3044 3409 
Q 3044 3113 2884 2869 
Q 2725 2625 2413 2481 
Q 2819 2388 3044 2092 
Q 3269 1797 3269 1353 
Q 3269 753 2831 336 
Q 2394 -81 1725 -81 
Q 1122 -81 723 278 
Q 325 638 269 1209 
z
" id="ArialMT-33" transform="scale(0.015625)"/>
       </defs>
       <use xlink:href="#ArialMT-33"/>
       <use x="55.615234" xlink:href="#ArialMT-30"/>
       <use x="111.230469" xlink:href="#ArialMT-30"/>
      </g>
     </g>
    </g>
    <g id="xtick_5">
     <g id="line2d_5">
      <path clip-path="url(#p7e6a3de54d)" d="M 368.802 298.20375 
L 368.802 12.96 
" style="fill:none;stroke:#ffffff;stroke-linecap:round;"/>
     </g>
     <g id="text_5">
      <!-- 400 -->
      <g style="fill:#262626;" transform="translate(359.626453 315.577344)scale(0.11 -0.11)">
       <defs>
        <path d="M 2069 0 
L 2069 1097 
L 81 1097 
L 81 1613 
L 2172 4581 
L 2631 4581 
L 2631 1613 
L 3250 1613 
L 3250 1097 
L 2631 1097 
L 2631 0 
L 2069 0 
z
M 2069 1613 
L 2069 3678 
L 634 1613 
L 2069 1613 
z
" id="ArialMT-34" transform="scale(0.015625)"/>
       </defs>
       <use xlink:href="#ArialMT-34"/>
       <use x="55.615234" xlink:href="#ArialMT-30"/>
       <use x="111.230469" xlink:href="#ArialMT-30"/>
      </g>
     </g>
    </g>
    <g id="xtick_6">
     <g id="line2d_6">
      <path clip-path="url(#p7e6a3de54d)" d="M 447.84 298.20375 
L 447.84 12.96 
" style="fill:none;stroke:#ffffff;stroke-linecap:round;"/>
     </g>
     <g id="text_6">
      <!-- 500 -->
      <g style="fill:#262626;" transform="translate(438.664453 315.577344)scale(0.11 -0.11)">
       <defs>
        <path d="M 266 1200 
L 856 1250 
Q 922 819 1161 601 
Q 1400 384 1738 384 
Q 2144 384 2425 690 
Q 2706 997 2706 1503 
Q 2706 1984 2436 2262 
Q 2166 2541 1728 2541 
Q 1456 2541 1237 2417 
Q 1019 2294 894 2097 
L 366 2166 
L 809 4519 
L 3088 4519 
L 3088 3981 
L 1259 3981 
L 1013 2750 
Q 1425 3038 1878 3038 
Q 2478 3038 2890 2622 
Q 3303 2206 3303 1553 
Q 3303 931 2941 478 
Q 2500 -78 1738 -78 
Q 1113 -78 717 272 
Q 322 622 266 1200 
z
" id="ArialMT-35" transform="scale(0.015625)"/>
       </defs>
       <use xlink:href="#ArialMT-35"/>
       <use x="55.615234" xlink:href="#ArialMT-30"/>
       <use x="111.230469" xlink:href="#ArialMT-30"/>
      </g>
     </g>
    </g>
    <g id="text_7">
     <!-- Timestep -->
     <g style="fill:#262626;" transform="translate(225.797813 330.352969)scale(0.12 -0.12)">
      <defs>
       <path d="M 1659 0 
L 1659 4041 
L 150 4041 
L 150 4581 
L 3781 4581 
L 3781 4041 
L 2266 4041 
L 2266 0 
L 1659 0 
z
" id="ArialMT-54" transform="scale(0.015625)"/>
       <path d="M 425 3934 
L 425 4581 
L 988 4581 
L 988 3934 
L 425 3934 
z
M 425 0 
L 425 3319 
L 988 3319 
L 988 0 
L 425 0 
z
" id="ArialMT-69" transform="scale(0.015625)"/>
       <path d="M 422 0 
L 422 3319 
L 925 3319 
L 925 2853 
Q 1081 3097 1340 3245 
Q 1600 3394 1931 3394 
Q 2300 3394 2536 3241 
Q 2772 3088 2869 2813 
Q 3263 3394 3894 3394 
Q 4388 3394 4653 3120 
Q 4919 2847 4919 2278 
L 4919 0 
L 4359 0 
L 4359 2091 
Q 4359 2428 4304 2576 
Q 4250 2725 4106 2815 
Q 3963 2906 3769 2906 
Q 3419 2906 3187 2673 
Q 2956 2441 2956 1928 
L 2956 0 
L 2394 0 
L 2394 2156 
Q 2394 2531 2256 2718 
Q 2119 2906 1806 2906 
Q 1569 2906 1367 2781 
Q 1166 2656 1075 2415 
Q 984 2175 984 1722 
L 984 0 
L 422 0 
z
" id="ArialMT-6d" transform="scale(0.015625)"/>
       <path d="M 2694 1069 
L 3275 997 
Q 3138 488 2766 206 
Q 2394 -75 1816 -75 
Q 1088 -75 661 373 
Q 234 822 234 1631 
Q 234 2469 665 2931 
Q 1097 3394 1784 3394 
Q 2450 3394 2872 2941 
Q 3294 2488 3294 1666 
Q 3294 1616 3291 1516 
L 816 1516 
Q 847 969 1125 678 
Q 1403 388 1819 388 
Q 2128 388 2347 550 
Q 2566 713 2694 1069 
z
M 847 1978 
L 2700 1978 
Q 2663 2397 2488 2606 
Q 2219 2931 1791 2931 
Q 1403 2931 1139 2672 
Q 875 2413 847 1978 
z
" id="ArialMT-65" transform="scale(0.015625)"/>
       <path d="M 197 991 
L 753 1078 
Q 800 744 1014 566 
Q 1228 388 1613 388 
Q 2000 388 2187 545 
Q 2375 703 2375 916 
Q 2375 1106 2209 1216 
Q 2094 1291 1634 1406 
Q 1016 1563 777 1677 
Q 538 1791 414 1992 
Q 291 2194 291 2438 
Q 291 2659 392 2848 
Q 494 3038 669 3163 
Q 800 3259 1026 3326 
Q 1253 3394 1513 3394 
Q 1903 3394 2198 3281 
Q 2494 3169 2634 2976 
Q 2775 2784 2828 2463 
L 2278 2388 
Q 2241 2644 2061 2787 
Q 1881 2931 1553 2931 
Q 1166 2931 1000 2803 
Q 834 2675 834 2503 
Q 834 2394 903 2306 
Q 972 2216 1119 2156 
Q 1203 2125 1616 2013 
Q 2213 1853 2448 1751 
Q 2684 1650 2818 1456 
Q 2953 1263 2953 975 
Q 2953 694 2789 445 
Q 2625 197 2315 61 
Q 2006 -75 1616 -75 
Q 969 -75 630 194 
Q 291 463 197 991 
z
" id="ArialMT-73" transform="scale(0.015625)"/>
       <path d="M 1650 503 
L 1731 6 
Q 1494 -44 1306 -44 
Q 1000 -44 831 53 
Q 663 150 594 308 
Q 525 466 525 972 
L 525 2881 
L 113 2881 
L 113 3319 
L 525 3319 
L 525 4141 
L 1084 4478 
L 1084 3319 
L 1650 3319 
L 1650 2881 
L 1084 2881 
L 1084 941 
Q 1084 700 1114 631 
Q 1144 563 1211 522 
Q 1278 481 1403 481 
Q 1497 481 1650 503 
z
" id="ArialMT-74" transform="scale(0.015625)"/>
       <path d="M 422 -1272 
L 422 3319 
L 934 3319 
L 934 2888 
Q 1116 3141 1344 3267 
Q 1572 3394 1897 3394 
Q 2322 3394 2647 3175 
Q 2972 2956 3137 2557 
Q 3303 2159 3303 1684 
Q 3303 1175 3120 767 
Q 2938 359 2589 142 
Q 2241 -75 1856 -75 
Q 1575 -75 1351 44 
Q 1128 163 984 344 
L 984 -1272 
L 422 -1272 
z
M 931 1641 
Q 931 1000 1190 694 
Q 1450 388 1819 388 
Q 2194 388 2461 705 
Q 2728 1022 2728 1688 
Q 2728 2322 2467 2637 
Q 2206 2953 1844 2953 
Q 1484 2953 1207 2617 
Q 931 2281 931 1641 
z
" id="ArialMT-70" transform="scale(0.015625)"/>
      </defs>
      <use xlink:href="#ArialMT-54"/>
      <use x="57.333984" xlink:href="#ArialMT-69"/>
      <use x="79.550781" xlink:href="#ArialMT-6d"/>
      <use x="162.851562" xlink:href="#ArialMT-65"/>
      <use x="218.466797" xlink:href="#ArialMT-73"/>
      <use x="268.466797" xlink:href="#ArialMT-74"/>
      <use x="296.25" xlink:href="#ArialMT-65"/>
      <use x="351.865234" xlink:href="#ArialMT-70"/>
     </g>
    </g>
   </g>
   <g id="matplotlib.axis_2">
    <g id="ytick_1">
     <g id="line2d_7">
      <path clip-path="url(#p7e6a3de54d)" d="M 52.65 285.238125 
L 447.84 285.238125 
" style="fill:none;stroke:#ffffff;stroke-linecap:round;"/>
     </g>
     <g id="text_8">
      <!-- 0.0 -->
      <g style="fill:#262626;" transform="translate(27.86 289.174922)scale(0.11 -0.11)">
       <defs>
        <path d="M 581 0 
L 581 641 
L 1222 641 
L 1222 0 
L 581 0 
z
" id="ArialMT-2e" transform="scale(0.015625)"/>
       </defs>
       <use xlink:href="#ArialMT-30"/>
       <use x="55.615234" xlink:href="#ArialMT-2e"/>
       <use x="83.398438" xlink:href="#ArialMT-30"/>
      </g>
     </g>
    </g>
    <g id="ytick_2">
     <g id="line2d_8">
      <path clip-path="url(#p7e6a3de54d)" d="M 52.65 246.250662 
L 447.84 246.250662 
" style="fill:none;stroke:#ffffff;stroke-linecap:round;"/>
     </g>
     <g id="text_9">
      <!-- 0.2 -->
      <g style="fill:#262626;" transform="translate(27.86 250.187459)scale(0.11 -0.11)">
       <use xlink:href="#ArialMT-30"/>
       <use x="55.615234" xlink:href="#ArialMT-2e"/>
       <use x="83.398438" xlink:href="#ArialMT-32"/>
      </g>
     </g>
    </g>
    <g id="ytick_3">
     <g id="line2d_9">
      <path clip-path="url(#p7e6a3de54d)" d="M 52.65 207.263199 
L 447.84 207.263199 
" style="fill:none;stroke:#ffffff;stroke-linecap:round;"/>
     </g>
     <g id="text_10">
      <!-- 0.4 -->
      <g style="fill:#262626;" transform="translate(27.86 211.199996)scale(0.11 -0.11)">
       <use xlink:href="#ArialMT-30"/>
       <use x="55.615234" xlink:href="#ArialMT-2e"/>
       <use x="83.398438" xlink:href="#ArialMT-34"/>
      </g>
     </g>
    </g>
    <g id="ytick_4">
     <g id="line2d_10">
      <path clip-path="url(#p7e6a3de54d)" d="M 52.65 168.275737 
L 447.84 168.275737 
" style="fill:none;stroke:#ffffff;stroke-linecap:round;"/>
     </g>
     <g id="text_11">
      <!-- 0.6 -->
      <g style="fill:#262626;" transform="translate(27.86 172.212533)scale(0.11 -0.11)">
       <defs>
        <path d="M 3184 3459 
L 2625 3416 
Q 2550 3747 2413 3897 
Q 2184 4138 1850 4138 
Q 1581 4138 1378 3988 
Q 1113 3794 959 3422 
Q 806 3050 800 2363 
Q 1003 2672 1297 2822 
Q 1591 2972 1913 2972 
Q 2475 2972 2870 2558 
Q 3266 2144 3266 1488 
Q 3266 1056 3080 686 
Q 2894 316 2569 119 
Q 2244 -78 1831 -78 
Q 1128 -78 684 439 
Q 241 956 241 2144 
Q 241 3472 731 4075 
Q 1159 4600 1884 4600 
Q 2425 4600 2770 4297 
Q 3116 3994 3184 3459 
z
M 888 1484 
Q 888 1194 1011 928 
Q 1134 663 1356 523 
Q 1578 384 1822 384 
Q 2178 384 2434 671 
Q 2691 959 2691 1453 
Q 2691 1928 2437 2201 
Q 2184 2475 1800 2475 
Q 1419 2475 1153 2201 
Q 888 1928 888 1484 
z
" id="ArialMT-36" transform="scale(0.015625)"/>
       </defs>
       <use xlink:href="#ArialMT-30"/>
       <use x="55.615234" xlink:href="#ArialMT-2e"/>
       <use x="83.398438" xlink:href="#ArialMT-36"/>
      </g>
     </g>
    </g>
    <g id="ytick_5">
     <g id="line2d_11">
      <path clip-path="url(#p7e6a3de54d)" d="M 52.65 129.288274 
L 447.84 129.288274 
" style="fill:none;stroke:#ffffff;stroke-linecap:round;"/>
     </g>
     <g id="text_12">
      <!-- 0.8 -->
      <g style="fill:#262626;" transform="translate(27.86 133.225071)scale(0.11 -0.11)">
       <defs>
        <path d="M 1131 2484 
Q 781 2613 612 2850 
Q 444 3088 444 3419 
Q 444 3919 803 4259 
Q 1163 4600 1759 4600 
Q 2359 4600 2725 4251 
Q 3091 3903 3091 3403 
Q 3091 3084 2923 2848 
Q 2756 2613 2416 2484 
Q 2838 2347 3058 2040 
Q 3278 1734 3278 1309 
Q 3278 722 2862 322 
Q 2447 -78 1769 -78 
Q 1091 -78 675 323 
Q 259 725 259 1325 
Q 259 1772 486 2073 
Q 713 2375 1131 2484 
z
M 1019 3438 
Q 1019 3113 1228 2906 
Q 1438 2700 1772 2700 
Q 2097 2700 2305 2904 
Q 2513 3109 2513 3406 
Q 2513 3716 2298 3927 
Q 2084 4138 1766 4138 
Q 1444 4138 1231 3931 
Q 1019 3725 1019 3438 
z
M 838 1322 
Q 838 1081 952 856 
Q 1066 631 1291 507 
Q 1516 384 1775 384 
Q 2178 384 2440 643 
Q 2703 903 2703 1303 
Q 2703 1709 2433 1975 
Q 2163 2241 1756 2241 
Q 1359 2241 1098 1978 
Q 838 1716 838 1322 
z
" id="ArialMT-38" transform="scale(0.015625)"/>
       </defs>
       <use xlink:href="#ArialMT-30"/>
       <use x="55.615234" xlink:href="#ArialMT-2e"/>
       <use x="83.398438" xlink:href="#ArialMT-38"/>
      </g>
     </g>
    </g>
    <g id="ytick_6">
     <g id="line2d_12">
      <path clip-path="url(#p7e6a3de54d)" d="M 52.65 90.300811 
L 447.84 90.300811 
" style="fill:none;stroke:#ffffff;stroke-linecap:round;"/>
     </g>
     <g id="text_13">
      <!-- 1.0 -->
      <g style="fill:#262626;" transform="translate(27.86 94.237608)scale(0.11 -0.11)">
       <use xlink:href="#ArialMT-31"/>
       <use x="55.615234" xlink:href="#ArialMT-2e"/>
       <use x="83.398438" xlink:href="#ArialMT-30"/>
      </g>
     </g>
    </g>
    <g id="ytick_7">
     <g id="line2d_13">
      <path clip-path="url(#p7e6a3de54d)" d="M 52.65 51.313348 
L 447.84 51.313348 
" style="fill:none;stroke:#ffffff;stroke-linecap:round;"/>
     </g>
     <g id="text_14">
      <!-- 1.2 -->
      <g style="fill:#262626;" transform="translate(27.86 55.250145)scale(0.11 -0.11)">
       <use xlink:href="#ArialMT-31"/>
       <use x="55.615234" xlink:href="#ArialMT-2e"/>
       <use x="83.398438" xlink:href="#ArialMT-32"/>
      </g>
     </g>
    </g>
    <g id="text_15">
     <!-- Time series -->
     <g style="fill:#262626;" transform="translate(21.475 186.36)rotate(-90)scale(0.12 -0.12)">
      <defs>
       <path id="ArialMT-20" transform="scale(0.015625)"/>
       <path d="M 416 0 
L 416 3319 
L 922 3319 
L 922 2816 
Q 1116 3169 1280 3281 
Q 1444 3394 1641 3394 
Q 1925 3394 2219 3213 
L 2025 2691 
Q 1819 2813 1613 2813 
Q 1428 2813 1281 2702 
Q 1134 2591 1072 2394 
Q 978 2094 978 1738 
L 978 0 
L 416 0 
z
" id="ArialMT-72" transform="scale(0.015625)"/>
      </defs>
      <use xlink:href="#ArialMT-54"/>
      <use x="57.333984" xlink:href="#ArialMT-69"/>
      <use x="79.550781" xlink:href="#ArialMT-6d"/>
      <use x="162.851562" xlink:href="#ArialMT-65"/>
      <use x="218.466797" xlink:href="#ArialMT-20"/>
      <use x="246.25" xlink:href="#ArialMT-73"/>
      <use x="296.25" xlink:href="#ArialMT-65"/>
      <use x="351.865234" xlink:href="#ArialMT-72"/>
      <use x="385.166016" xlink:href="#ArialMT-69"/>
      <use x="407.382812" xlink:href="#ArialMT-65"/>
      <use x="462.998047" xlink:href="#ArialMT-73"/>
     </g>
    </g>
   </g>
   <g id="line2d_14">
    <path clip-path="url(#p7e6a3de54d)" d="M 52.65 51.313348 
L 54.23076 82.638316 
L 55.02114 96.185393 
L 55.81152 106.993583 
L 56.6019 114.059869 
L 57.39228 126.374765 
L 59.76342 156.692344 
L 61.34418 170.786291 
L 62.13456 174.730265 
L 64.5057 193.384251 
L 65.29608 197.697107 
L 66.08646 201.372816 
L 66.87684 203.162969 
L 67.66722 200.573034 
L 68.4576 193.021353 
L 69.24798 181.070324 
L 72.4095 125.877314 
L 73.19988 115.615 
L 73.99026 107.665811 
L 74.78064 101.71848 
L 75.57102 97.505131 
L 76.3614 94.409707 
L 77.15178 92.74755 
L 77.94216 92.480579 
L 78.73254 93.351208 
L 79.52292 94.955958 
L 81.10368 99.390438 
L 81.89406 100.966133 
L 82.68444 100.960604 
L 83.47482 98.708742 
L 84.2652 94.088343 
L 85.05558 87.553957 
L 86.63634 72.743094 
L 87.42672 67.113616 
L 88.2171 63.615726 
L 89.00748 62.125682 
L 89.79786 62.167906 
L 90.58824 63.309085 
L 92.169 66.544335 
L 92.95938 67.65832 
L 93.74976 68.078306 
L 94.54014 67.693078 
L 95.33052 66.565402 
L 96.91128 63.646184 
L 97.70166 63.131948 
L 98.49204 64.299006 
L 99.28242 67.826014 
L 100.0728 73.915267 
L 101.65356 91.175787 
L 103.23432 109.327278 
L 104.81508 124.224974 
L 105.60546 130.008377 
L 106.39584 134.770157 
L 107.9766 142.198558 
L 111.13812 155.663831 
L 111.9285 158.975109 
L 112.71888 161.641234 
L 113.50926 163.000407 
L 114.29964 162.224541 
L 115.09002 158.557585 
L 115.8804 151.730046 
L 116.67078 142.245484 
L 119.8323 98.808446 
L 121.41306 82.132023 
L 122.20344 75.414642 
L 122.99382 69.700067 
L 123.7842 64.947377 
L 124.57458 61.128099 
L 125.36496 58.202064 
L 126.15534 56.084676 
L 126.94572 54.612309 
L 128.52648 52.382273 
L 129.31686 50.75051 
L 130.10724 48.219142 
L 132.47838 37.73017 
L 133.26876 36.749648 
L 134.05914 38.761331 
L 134.84952 43.814299 
L 135.6399 51.373058 
L 137.22066 71.065911 
L 140.38218 113.456673 
L 141.96294 131.714177 
L 144.33408 155.161311 
L 146.70522 176.852537 
L 148.28598 188.928357 
L 149.07636 193.251043 
L 149.86674 195.802049 
L 150.65712 195.953422 
L 151.4475 193.008254 
L 152.23788 186.453617 
L 153.02826 176.366945 
L 154.60902 149.720292 
L 156.18978 123.429868 
L 156.98016 112.56177 
L 157.77054 103.589134 
L 158.56092 96.544241 
L 159.3513 91.375476 
L 160.14168 87.974972 
L 160.93206 86.176618 
L 161.72244 85.753702 
L 162.51282 86.422851 
L 163.3032 87.844747 
L 164.88396 91.244146 
L 165.67434 92.161308 
L 166.46472 91.754791 
L 167.2551 89.507238 
L 168.04548 85.195667 
L 169.62624 72.151626 
L 170.41662 65.77211 
L 171.207 61.326408 
L 171.99738 59.487504 
L 172.78776 60.11684 
L 173.57814 62.581693 
L 176.73966 76.744626 
L 177.53004 78.975364 
L 178.32042 80.314982 
L 179.1108 80.907354 
L 179.90118 81.097973 
L 180.69156 81.423189 
L 181.48194 82.570794 
L 182.27232 85.267596 
L 183.0627 90.021343 
L 183.85308 96.794187 
L 187.0146 129.202457 
L 187.80498 135.184263 
L 188.59536 139.583943 
L 189.38574 142.353687 
L 190.17612 143.626249 
L 190.9665 143.690731 
L 191.75688 142.93189 
L 194.12802 139.203564 
L 194.9184 137.953887 
L 195.70878 136.386956 
L 196.49916 133.934781 
L 197.28954 129.888936 
L 198.07992 123.730689 
L 198.8703 115.563768 
L 201.24144 87.817641 
L 202.8222 73.225947 
L 204.40296 62.212356 
L 205.98372 53.249766 
L 207.56448 45.476003 
L 209.14524 38.68485 
L 210.726 32.681723 
L 212.30676 27.540384 
L 213.09714 26.220274 
L 213.88752 26.992966 
L 214.6779 30.667655 
L 215.46828 37.293622 
L 216.25866 46.281898 
L 217.83942 68.322764 
L 221.79132 126.443178 
L 223.37208 147.015934 
L 224.95284 165.372467 
L 226.5336 181.492172 
L 228.11436 195.055918 
L 228.90474 200.496904 
L 229.69512 204.655086 
L 230.4855 207.071967 
L 231.27588 207.108655 
L 232.06626 203.986067 
L 232.85664 197.032891 
L 233.64702 186.179813 
L 235.22778 157.28548 
L 236.80854 129.749923 
L 237.59892 119.058215 
L 238.3893 110.746886 
L 239.17968 104.7134 
L 239.97006 100.746284 
L 240.76044 98.593469 
L 241.55082 97.988148 
L 242.3412 98.651099 
L 243.13158 100.2827 
L 245.50272 107.33652 
L 246.2931 108.804231 
L 247.08348 108.812497 
L 247.87386 106.769948 
L 248.66424 102.360788 
L 249.45462 95.767461 
L 251.03538 79.791933 
L 251.82576 73.044863 
L 252.61614 68.271634 
L 253.40652 65.44815 
L 254.1969 64.091321 
L 254.98728 63.573693 
L 255.77766 63.311601 
L 256.56804 62.848679 
L 257.35842 61.888859 
L 258.1488 60.307398 
L 258.93918 58.14511 
L 261.31032 50.482994 
L 262.1007 48.795445 
L 262.89108 48.517317 
L 263.68146 50.466625 
L 264.47184 55.213995 
L 265.26222 62.570813 
L 266.84298 81.436092 
L 268.42374 100.327249 
L 270.0045 116.503254 
L 271.58526 130.321876 
L 275.53716 162.283009 
L 277.11792 173.760258 
L 277.9083 178.346446 
L 278.69868 181.49518 
L 279.48906 182.503672 
L 280.27944 180.643375 
L 281.06982 175.445295 
L 281.8602 167.021561 
L 283.44096 143.894297 
L 285.02172 119.339566 
L 286.60248 98.655406 
L 287.39286 90.473643 
L 288.18324 83.864904 
L 288.97362 78.829547 
L 289.764 75.301385 
L 290.55438 73.153391 
L 291.34476 72.197947 
L 292.13514 72.177097 
L 293.7159 73.444401 
L 294.50628 73.731516 
L 295.29666 73.0296 
L 296.08704 70.874674 
L 296.87742 67.09483 
L 299.24856 51.90693 
L 300.03894 49.692304 
L 300.82932 50.523972 
L 301.6197 54.243484 
L 302.41008 60.147543 
L 303.99084 75.228785 
L 305.5716 90.487356 
L 307.15236 103.095574 
L 308.73312 112.68772 
L 310.31388 121.636077 
L 311.10426 127.027399 
L 312.68502 140.518142 
L 314.26578 155.168606 
L 315.05616 161.512755 
L 315.84654 166.479555 
L 316.63692 169.56342 
L 317.4273 170.302491 
L 318.21768 168.37096 
L 319.00806 163.719405 
L 319.79844 156.661743 
L 321.3792 137.888363 
L 324.54072 97.537672 
L 326.12148 80.617123 
L 326.91186 73.878497 
L 327.70224 68.627904 
L 328.49262 64.911139 
L 329.283 62.577152 
L 330.07338 61.321459 
L 330.86376 60.732669 
L 331.65414 60.332542 
L 332.44452 59.624983 
L 333.2349 58.169981 
L 334.02528 55.682548 
L 334.81566 52.141623 
L 336.39642 43.678587 
L 337.1868 40.593361 
L 337.97718 39.755527 
L 338.76756 41.915281 
L 339.55794 47.166322 
L 340.34832 54.979466 
L 341.92908 74.848721 
L 344.30022 105.030715 
L 345.88098 121.857876 
L 348.25212 143.470301 
L 352.20402 178.763936 
L 352.9944 184.347473 
L 353.78478 188.542243 
L 354.57516 190.773502 
L 355.36554 190.357017 
L 356.15592 186.651301 
L 356.9463 179.386531 
L 357.73668 168.97771 
L 361.68858 107.465658 
L 362.47896 98.473204 
L 363.26934 91.239189 
L 364.05972 85.799528 
L 364.8501 82.10609 
L 365.64048 80.023399 
L 366.43086 79.335221 
L 367.22124 79.753886 
L 368.01162 80.921218 
L 369.59238 83.656331 
L 370.38276 84.096336 
L 371.17314 83.136084 
L 371.96352 80.366622 
L 372.7539 75.738399 
L 375.12504 58.364116 
L 375.91542 55.748927 
L 376.7058 56.065947 
L 377.49618 58.967792 
L 378.28656 63.678114 
L 381.44808 85.825218 
L 382.23846 89.844893 
L 383.02884 92.92186 
L 383.81922 95.225173 
L 385.39998 99.241556 
L 386.19036 102.193277 
L 386.98074 106.562028 
L 387.77112 112.559058 
L 389.35188 127.852759 
L 390.93264 142.698659 
L 391.72302 148.345887 
L 392.5134 152.200256 
L 393.30378 153.975307 
L 394.09416 153.579067 
L 394.88454 151.159734 
L 395.67492 147.086941 
L 397.25568 135.963229 
L 400.4172 110.396494 
L 401.99796 95.067843 
L 403.57872 78.86671 
L 404.3691 71.919653 
L 405.15948 66.226439 
L 405.94986 61.752416 
L 406.74024 58.242515 
L 410.69214 43.378629 
L 412.2729 36.380487 
L 413.06328 33.400198 
L 413.85366 31.300479 
L 414.64404 30.57482 
L 415.43442 31.818655 
L 416.2248 35.608729 
L 417.01518 42.163467 
L 417.80556 51.106483 
L 419.38632 73.022204 
L 421.75746 106.899123 
L 424.1286 137.154906 
L 426.49974 163.994967 
L 428.0805 179.656711 
L 429.66126 192.699999 
L 430.45164 197.811096 
L 431.24202 201.544706 
L 432.0324 203.360031 
L 432.82278 202.535292 
L 433.61316 198.305156 
L 434.40354 190.226803 
L 435.19392 178.631071 
L 438.35544 123.846608 
L 439.14582 113.648413 
L 439.9362 105.688361 
L 440.72658 99.897328 
L 441.51696 96.094201 
L 442.30734 94.042385 
L 443.09772 93.479243 
L 443.8881 94.125408 
L 444.67848 95.678099 
L 447.04962 101.934294 
L 447.84 102.837573 
L 448.63038 102.125905 
L 448.63038 102.125905 
" style="fill:none;stroke:#4c72b0;stroke-linecap:round;stroke-width:1.5;"/>
   </g>
   <g id="line2d_15">
    <path clip-path="url(#p7e6a3de54d)" d="M 52.65 67.818908 
L 54.23076 96.185393 
L 55.02114 106.993583 
L 55.81152 114.059869 
L 56.6019 126.374765 
L 58.97304 156.692344 
L 60.5538 170.786291 
L 61.34418 174.730265 
L 63.71532 193.384251 
L 64.5057 197.697107 
L 65.29608 201.372816 
L 66.08646 203.162969 
L 66.87684 200.573034 
L 67.66722 193.021353 
L 68.4576 181.070324 
L 71.61912 125.877314 
L 72.4095 115.615 
L 73.19988 107.665811 
L 73.99026 101.71848 
L 74.78064 97.505131 
L 75.57102 94.409707 
L 76.3614 92.74755 
L 77.15178 92.480579 
L 77.94216 93.351208 
L 78.73254 94.955958 
L 80.3133 99.390438 
L 81.10368 100.966133 
L 81.89406 100.960604 
L 82.68444 98.708742 
L 83.47482 94.088343 
L 84.2652 87.553957 
L 85.84596 72.743094 
L 86.63634 67.113616 
L 87.42672 63.615726 
L 88.2171 62.125682 
L 89.00748 62.167906 
L 89.79786 63.309085 
L 91.37862 66.544335 
L 92.169 67.65832 
L 92.95938 68.078306 
L 93.74976 67.693078 
L 94.54014 66.565402 
L 96.1209 63.646184 
L 96.91128 63.131948 
L 97.70166 64.299006 
L 98.49204 67.826014 
L 99.28242 73.915267 
L 100.86318 91.175787 
L 102.44394 109.327278 
L 104.0247 124.224974 
L 104.81508 130.008377 
L 105.60546 134.770157 
L 107.18622 142.198558 
L 110.34774 155.663831 
L 111.13812 158.975109 
L 111.9285 161.641234 
L 112.71888 163.000407 
L 113.50926 162.224541 
L 114.29964 158.557585 
L 115.09002 151.730046 
L 115.8804 142.245484 
L 119.04192 98.808446 
L 120.62268 82.132023 
L 121.41306 75.414642 
L 122.20344 69.700067 
L 122.99382 64.947377 
L 123.7842 61.128099 
L 124.57458 58.202064 
L 125.36496 56.084676 
L 126.15534 54.612309 
L 127.7361 52.382273 
L 128.52648 50.75051 
L 129.31686 48.219142 
L 131.688 37.73017 
L 132.47838 36.749648 
L 133.26876 38.761331 
L 134.05914 43.814299 
L 134.84952 51.373058 
L 136.43028 71.065911 
L 139.5918 113.456673 
L 141.17256 131.714177 
L 143.5437 155.161311 
L 145.91484 176.852537 
L 147.4956 188.928357 
L 148.28598 193.251043 
L 149.07636 195.802049 
L 149.86674 195.953422 
L 150.65712 193.008254 
L 151.4475 186.453617 
L 152.23788 176.366945 
L 153.81864 149.720292 
L 155.3994 123.429868 
L 156.18978 112.56177 
L 156.98016 103.589134 
L 157.77054 96.544241 
L 158.56092 91.375476 
L 159.3513 87.974972 
L 160.14168 86.176618 
L 160.93206 85.753702 
L 161.72244 86.422851 
L 162.51282 87.844747 
L 164.09358 91.244146 
L 164.88396 92.161308 
L 165.67434 91.754791 
L 166.46472 89.507238 
L 167.2551 85.195667 
L 168.83586 72.151626 
L 169.62624 65.77211 
L 170.41662 61.326408 
L 171.207 59.487504 
L 171.99738 60.11684 
L 172.78776 62.581693 
L 175.94928 76.744626 
L 176.73966 78.975364 
L 177.53004 80.314982 
L 178.32042 80.907354 
L 179.1108 81.097973 
L 179.90118 81.423189 
L 180.69156 82.570794 
L 181.48194 85.267596 
L 182.27232 90.021343 
L 183.0627 96.794187 
L 186.22422 129.202457 
L 187.0146 135.184263 
L 187.80498 139.583943 
L 188.59536 142.353687 
L 189.38574 143.626249 
L 190.17612 143.690731 
L 190.9665 142.93189 
L 193.33764 139.203564 
L 194.12802 137.953887 
L 194.9184 136.386956 
L 195.70878 133.934781 
L 196.49916 129.888936 
L 197.28954 123.730689 
L 198.07992 115.563768 
L 200.45106 87.817641 
L 202.03182 73.225947 
L 203.61258 62.212356 
L 205.19334 53.249766 
L 206.7741 45.476003 
L 208.35486 38.68485 
L 209.93562 32.681723 
L 211.51638 27.540384 
L 212.30676 26.220274 
L 213.09714 26.992966 
L 213.88752 30.667655 
L 214.6779 37.293622 
L 215.46828 46.281898 
L 217.04904 68.322764 
L 221.00094 126.443178 
L 222.5817 147.015934 
L 224.16246 165.372467 
L 225.74322 181.492172 
L 227.32398 195.055918 
L 228.11436 200.496904 
L 228.90474 204.655086 
L 229.69512 207.071967 
L 230.4855 207.108655 
L 231.27588 203.986067 
L 232.06626 197.032891 
L 232.85664 186.179813 
L 234.4374 157.28548 
L 236.01816 129.749923 
L 236.80854 119.058215 
L 237.59892 110.746886 
L 238.3893 104.7134 
L 239.17968 100.746284 
L 239.97006 98.593469 
L 240.76044 97.988148 
L 241.55082 98.651099 
L 242.3412 100.2827 
L 244.71234 107.33652 
L 245.50272 108.804231 
L 246.2931 108.812497 
L 247.08348 106.769948 
L 247.87386 102.360788 
L 248.66424 95.767461 
L 250.245 79.791933 
L 251.03538 73.044863 
L 251.82576 68.271634 
L 252.61614 65.44815 
L 253.40652 64.091321 
L 254.1969 63.573693 
L 254.98728 63.311601 
L 255.77766 62.848679 
L 256.56804 61.888859 
L 257.35842 60.307398 
L 258.1488 58.14511 
L 260.51994 50.482994 
L 261.31032 48.795445 
L 262.1007 48.517317 
L 262.89108 50.466625 
L 263.68146 55.213995 
L 264.47184 62.570813 
L 266.0526 81.436092 
L 267.63336 100.327249 
L 269.21412 116.503254 
L 270.79488 130.321876 
L 274.74678 162.283009 
L 276.32754 173.760258 
L 277.11792 178.346446 
L 277.9083 181.49518 
L 278.69868 182.503672 
L 279.48906 180.643375 
L 280.27944 175.445295 
L 281.06982 167.021561 
L 282.65058 143.894297 
L 284.23134 119.339566 
L 285.8121 98.655406 
L 286.60248 90.473643 
L 287.39286 83.864904 
L 288.18324 78.829547 
L 288.97362 75.301385 
L 289.764 73.153391 
L 290.55438 72.197947 
L 291.34476 72.177097 
L 292.92552 73.444401 
L 293.7159 73.731516 
L 294.50628 73.0296 
L 295.29666 70.874674 
L 296.08704 67.09483 
L 298.45818 51.90693 
L 299.24856 49.692304 
L 300.03894 50.523972 
L 300.82932 54.243484 
L 301.6197 60.147543 
L 303.20046 75.228785 
L 304.78122 90.487356 
L 306.36198 103.095574 
L 307.94274 112.68772 
L 309.5235 121.636077 
L 310.31388 127.027399 
L 311.89464 140.518142 
L 313.4754 155.168606 
L 314.26578 161.512755 
L 315.05616 166.479555 
L 315.84654 169.56342 
L 316.63692 170.302491 
L 317.4273 168.37096 
L 318.21768 163.719405 
L 319.00806 156.661743 
L 320.58882 137.888363 
L 323.75034 97.537672 
L 325.3311 80.617123 
L 326.12148 73.878497 
L 326.91186 68.627904 
L 327.70224 64.911139 
L 328.49262 62.577152 
L 329.283 61.321459 
L 330.07338 60.732669 
L 330.86376 60.332542 
L 331.65414 59.624983 
L 332.44452 58.169981 
L 333.2349 55.682548 
L 334.02528 52.141623 
L 335.60604 43.678587 
L 336.39642 40.593361 
L 337.1868 39.755527 
L 337.97718 41.915281 
L 338.76756 47.166322 
L 339.55794 54.979466 
L 341.1387 74.848721 
L 343.50984 105.030715 
L 345.0906 121.857876 
L 347.46174 143.470301 
L 351.41364 178.763936 
L 352.20402 184.347473 
L 352.9944 188.542243 
L 353.78478 190.773502 
L 354.57516 190.357017 
L 355.36554 186.651301 
L 356.15592 179.386531 
L 356.9463 168.97771 
L 360.8982 107.465658 
L 361.68858 98.473204 
L 362.47896 91.239189 
L 363.26934 85.799528 
L 364.05972 82.10609 
L 364.8501 80.023399 
L 365.64048 79.335221 
L 366.43086 79.753886 
L 367.22124 80.921218 
L 368.802 83.656331 
L 369.59238 84.096336 
L 370.38276 83.136084 
L 371.17314 80.366622 
L 371.96352 75.738399 
L 374.33466 58.364116 
L 375.12504 55.748927 
L 375.91542 56.065947 
L 376.7058 58.967792 
L 377.49618 63.678114 
L 380.6577 85.825218 
L 381.44808 89.844893 
L 382.23846 92.92186 
L 383.02884 95.225173 
L 384.6096 99.241556 
L 385.39998 102.193277 
L 386.19036 106.562028 
L 386.98074 112.559058 
L 388.5615 127.852759 
L 390.14226 142.698659 
L 390.93264 148.345887 
L 391.72302 152.200256 
L 392.5134 153.975307 
L 393.30378 153.579067 
L 394.09416 151.159734 
L 394.88454 147.086941 
L 396.4653 135.963229 
L 399.62682 110.396494 
L 401.20758 95.067843 
L 402.78834 78.86671 
L 403.57872 71.919653 
L 404.3691 66.226439 
L 405.15948 61.752416 
L 405.94986 58.242515 
L 409.90176 43.378629 
L 411.48252 36.380487 
L 412.2729 33.400198 
L 413.06328 31.300479 
L 413.85366 30.57482 
L 414.64404 31.818655 
L 415.43442 35.608729 
L 416.2248 42.163467 
L 417.01518 51.106483 
L 418.59594 73.022204 
L 420.96708 106.899123 
L 423.33822 137.154906 
L 425.70936 163.994967 
L 427.29012 179.656711 
L 428.87088 192.699999 
L 429.66126 197.811096 
L 430.45164 201.544706 
L 431.24202 203.360031 
L 432.0324 202.535292 
L 432.82278 198.305156 
L 433.61316 190.226803 
L 434.40354 178.631071 
L 437.56506 123.846608 
L 438.35544 113.648413 
L 439.14582 105.688361 
L 439.9362 99.897328 
L 440.72658 96.094201 
L 441.51696 94.042385 
L 442.30734 93.479243 
L 443.09772 94.125408 
L 443.8881 95.678099 
L 446.25924 101.934294 
L 447.04962 102.837573 
L 447.84 102.125905 
L 448.63038 99.309768 
L 448.63038 99.309768 
" style="fill:none;stroke:#dd8452;stroke-linecap:round;stroke-width:1.5;"/>
   </g>
   <g id="patch_3">
    <path d="M 52.65 298.20375 
L 52.65 12.96 
" style="fill:none;stroke:#ffffff;stroke-linecap:square;stroke-linejoin:miter;stroke-width:1.25;"/>
   </g>
   <g id="patch_4">
    <path d="M 447.84 298.20375 
L 447.84 12.96 
" style="fill:none;stroke:#ffffff;stroke-linecap:square;stroke-linejoin:miter;stroke-width:1.25;"/>
   </g>
   <g id="patch_5">
    <path d="M 52.65 298.20375 
L 447.84 298.20375 
" style="fill:none;stroke:#ffffff;stroke-linecap:square;stroke-linejoin:miter;stroke-width:1.25;"/>
   </g>
   <g id="patch_6">
    <path d="M 52.65 12.96 
L 447.84 12.96 
" style="fill:none;stroke:#ffffff;stroke-linecap:square;stroke-linejoin:miter;stroke-width:1.25;"/>
   </g>
   <g id="legend_1">
    <g id="patch_7">
     <path d="M 60.35 292.70375 
L 126.114531 292.70375 
Q 128.314531 292.70375 128.314531 290.50375 
L 128.314531 260.355156 
Q 128.314531 258.155156 126.114531 258.155156 
L 60.35 258.155156 
Q 58.15 258.155156 58.15 260.355156 
L 58.15 290.50375 
Q 58.15 292.70375 60.35 292.70375 
z
" style="fill:#eaeaf2;opacity:0.8;stroke:#cccccc;stroke-linejoin:miter;"/>
    </g>
    <g id="line2d_16">
     <path d="M 62.55 266.57875 
L 84.55 266.57875 
" style="fill:none;stroke:#4c72b0;stroke-linecap:round;stroke-width:1.5;"/>
    </g>
    <g id="line2d_17"/>
    <g id="text_16">
     <!-- Input -->
     <g style="fill:#262626;" transform="translate(93.35 270.42875)scale(0.11 -0.11)">
      <defs>
       <path d="M 597 0 
L 597 4581 
L 1203 4581 
L 1203 0 
L 597 0 
z
" id="ArialMT-49" transform="scale(0.015625)"/>
       <path d="M 422 0 
L 422 3319 
L 928 3319 
L 928 2847 
Q 1294 3394 1984 3394 
Q 2284 3394 2536 3286 
Q 2788 3178 2913 3003 
Q 3038 2828 3088 2588 
Q 3119 2431 3119 2041 
L 3119 0 
L 2556 0 
L 2556 2019 
Q 2556 2363 2490 2533 
Q 2425 2703 2258 2804 
Q 2091 2906 1866 2906 
Q 1506 2906 1245 2678 
Q 984 2450 984 1813 
L 984 0 
L 422 0 
z
" id="ArialMT-6e" transform="scale(0.015625)"/>
       <path d="M 2597 0 
L 2597 488 
Q 2209 -75 1544 -75 
Q 1250 -75 995 37 
Q 741 150 617 320 
Q 494 491 444 738 
Q 409 903 409 1263 
L 409 3319 
L 972 3319 
L 972 1478 
Q 972 1038 1006 884 
Q 1059 663 1231 536 
Q 1403 409 1656 409 
Q 1909 409 2131 539 
Q 2353 669 2445 892 
Q 2538 1116 2538 1541 
L 2538 3319 
L 3100 3319 
L 3100 0 
L 2597 0 
z
" id="ArialMT-75" transform="scale(0.015625)"/>
      </defs>
      <use xlink:href="#ArialMT-49"/>
      <use x="27.783203" xlink:href="#ArialMT-6e"/>
      <use x="83.398438" xlink:href="#ArialMT-70"/>
      <use x="139.013672" xlink:href="#ArialMT-75"/>
      <use x="194.628906" xlink:href="#ArialMT-74"/>
     </g>
    </g>
    <g id="line2d_18">
     <path d="M 62.55 282.138594 
L 84.55 282.138594 
" style="fill:none;stroke:#dd8452;stroke-linecap:round;stroke-width:1.5;"/>
    </g>
    <g id="line2d_19"/>
    <g id="text_17">
     <!-- Target -->
     <g style="fill:#262626;" transform="translate(93.35 285.988594)scale(0.11 -0.11)">
      <defs>
       <path d="M 2588 409 
Q 2275 144 1986 34 
Q 1697 -75 1366 -75 
Q 819 -75 525 192 
Q 231 459 231 875 
Q 231 1119 342 1320 
Q 453 1522 633 1644 
Q 813 1766 1038 1828 
Q 1203 1872 1538 1913 
Q 2219 1994 2541 2106 
Q 2544 2222 2544 2253 
Q 2544 2597 2384 2738 
Q 2169 2928 1744 2928 
Q 1347 2928 1158 2789 
Q 969 2650 878 2297 
L 328 2372 
Q 403 2725 575 2942 
Q 747 3159 1072 3276 
Q 1397 3394 1825 3394 
Q 2250 3394 2515 3294 
Q 2781 3194 2906 3042 
Q 3031 2891 3081 2659 
Q 3109 2516 3109 2141 
L 3109 1391 
Q 3109 606 3145 398 
Q 3181 191 3288 0 
L 2700 0 
Q 2613 175 2588 409 
z
M 2541 1666 
Q 2234 1541 1622 1453 
Q 1275 1403 1131 1340 
Q 988 1278 909 1158 
Q 831 1038 831 891 
Q 831 666 1001 516 
Q 1172 366 1500 366 
Q 1825 366 2078 508 
Q 2331 650 2450 897 
Q 2541 1088 2541 1459 
L 2541 1666 
z
" id="ArialMT-61" transform="scale(0.015625)"/>
       <path d="M 319 -275 
L 866 -356 
Q 900 -609 1056 -725 
Q 1266 -881 1628 -881 
Q 2019 -881 2231 -725 
Q 2444 -569 2519 -288 
Q 2563 -116 2559 434 
Q 2191 0 1641 0 
Q 956 0 581 494 
Q 206 988 206 1678 
Q 206 2153 378 2554 
Q 550 2956 876 3175 
Q 1203 3394 1644 3394 
Q 2231 3394 2613 2919 
L 2613 3319 
L 3131 3319 
L 3131 450 
Q 3131 -325 2973 -648 
Q 2816 -972 2473 -1159 
Q 2131 -1347 1631 -1347 
Q 1038 -1347 672 -1080 
Q 306 -813 319 -275 
z
M 784 1719 
Q 784 1066 1043 766 
Q 1303 466 1694 466 
Q 2081 466 2343 764 
Q 2606 1063 2606 1700 
Q 2606 2309 2336 2618 
Q 2066 2928 1684 2928 
Q 1309 2928 1046 2623 
Q 784 2319 784 1719 
z
" id="ArialMT-67" transform="scale(0.015625)"/>
      </defs>
      <use xlink:href="#ArialMT-54"/>
      <use x="49.958984" xlink:href="#ArialMT-61"/>
      <use x="105.574219" xlink:href="#ArialMT-72"/>
      <use x="138.875" xlink:href="#ArialMT-67"/>
      <use x="194.490234" xlink:href="#ArialMT-65"/>
      <use x="250.105469" xlink:href="#ArialMT-74"/>
     </g>
    </g>
   </g>
  </g>
 </g>
 <defs>
  <clipPath id="p7e6a3de54d">
   <rect height="285.24375" width="395.19" x="52.65" y="12.96"/>
  </clipPath>
 </defs>
</svg>
