<?xml version="1.0" encoding="utf-8"?>
<!-- Generator: Adobe Illustrator 14.0.0, SVG Export Plug-In . SVG Version: 6.00 Build 43363)  -->
<!DOCTYPE svg PUBLIC "-//W3C//DTD SVG 1.0//EN" "http://www.w3.org/TR/2001/REC-SVG-20010904/DTD/svg10.dtd">
<svg version="1.0" id="Ebene_1" xmlns="http://www.w3.org/2000/svg" xmlns:xlink="http://www.w3.org/1999/xlink" x="0px" y="0px"
	 width="255.096px" height="73.943px" viewBox="0 0 255.096 73.943" enable-background="new 0 0 255.096 73.943"
	 xml:space="preserve">
<g>
	<polygon fill-rule="evenodd" clip-rule="evenodd" fill="#00305E" points="225.936,23.328 225.936,26.856 229.392,26.856 
		229.392,23.328 225.936,23.328 	"/>
	<polygon fill-rule="evenodd" clip-rule="evenodd" fill="#00305E" points="235.368,23.328 235.368,26.856 238.824,26.856 
		238.824,23.328 235.368,23.328 	"/>
	<path fill-rule="evenodd" clip-rule="evenodd" fill="#00305E" d="M182.304,47.088l-4.464-8.713c1.943-0.646,3.6-2.447,3.6-5.255
		c0-3.312-2.376-6.12-6.48-6.12h-7.848v20.088H171v-8.064h2.809l3.96,8.064H182.304L182.304,47.088z M177.552,33.12
		c0,1.584-1.152,2.664-2.809,2.664H171v-5.328h3.744C176.4,30.456,177.552,31.608,177.552,33.12L177.552,33.12z"/>
	<path fill-rule="evenodd" clip-rule="evenodd" fill="#00305E" d="M241.2,47.088L233.856,27h-3.024l-7.344,20.088h4.104l1.224-3.6
		h7.128l1.152,3.6H241.2L241.2,47.088z M234.864,40.176h-4.968l2.52-7.272L234.864,40.176L234.864,40.176z"/>
	<path fill-rule="evenodd" clip-rule="evenodd" fill="#00305E" d="M100.008,40.176V27H96.12v13.031c0,2.305-1.44,3.672-3.528,3.672
		c-2.088,0-3.456-1.367-3.456-3.672V27h-3.888v13.176c0,4.248,3.24,7.057,7.344,7.057S100.008,44.424,100.008,40.176L100.008,40.176
		z"/>
	<polygon fill-rule="evenodd" clip-rule="evenodd" fill="#00305E" points="119.952,47.088 119.952,27 115.992,27 115.992,39.24 
		108.072,27 104.544,27 104.544,47.088 108.504,47.088 108.504,34.704 116.424,47.088 119.952,47.088 	"/>
	<polygon fill-rule="evenodd" clip-rule="evenodd" fill="#00305E" points="128.592,47.088 128.592,27 124.632,27 124.632,47.088 
		128.592,47.088 	"/>
	<polygon fill-rule="evenodd" clip-rule="evenodd" fill="#00305E" points="147.384,27 143.28,27 139.248,40.031 135.216,27 
		131.184,27 137.808,47.088 140.688,47.088 147.384,27 	"/>
	<polygon fill-rule="evenodd" clip-rule="evenodd" fill="#00305E" points="163.152,47.016 163.152,43.561 153.864,43.561 
		153.864,38.664 161.784,38.664 161.784,35.208 153.864,35.208 153.864,30.456 163.152,30.456 163.152,27 149.976,27 
		149.976,47.016 163.152,47.016 	"/>
	<path fill-rule="evenodd" clip-rule="evenodd" fill="#00305E" d="M198.648,41.111c0-1.727-0.504-3.24-1.584-4.248
		c-0.792-0.792-1.944-1.296-3.816-1.512l-2.376-0.36c-0.792-0.144-1.439-0.432-1.872-0.792c-0.359-0.36-0.575-0.936-0.575-1.44
		c0-1.368,1.008-2.52,3.096-2.52c1.368,0,2.88,0.144,4.104,1.368l2.521-2.448c-1.729-1.656-3.744-2.376-6.48-2.376
		c-4.319,0-6.983,2.52-6.983,6.12c0,1.656,0.432,2.952,1.439,3.96c0.864,0.865,2.16,1.369,3.889,1.656l2.376,0.359
		c0.936,0.145,1.439,0.289,1.8,0.648c0.432,0.432,0.647,1.008,0.647,1.729c0,1.584-1.296,2.447-3.6,2.447
		c-1.8,0-3.528-0.432-4.824-1.654l-2.52,2.52c1.943,2.016,4.248,2.664,7.344,2.664C195.408,47.232,198.648,45,198.648,41.111
		L198.648,41.111z"/>
	<polygon fill-rule="evenodd" clip-rule="evenodd" fill="#00305E" points="206.352,47.088 206.352,27 202.464,27 202.464,47.088 
		206.352,47.088 	"/>
	<polygon fill-rule="evenodd" clip-rule="evenodd" fill="#00305E" points="224.136,30.456 224.136,27 209.736,27 209.736,30.456 
		214.992,30.456 214.992,47.016 218.88,47.016 218.88,30.456 224.136,30.456 	"/>
	<polygon fill-rule="evenodd" clip-rule="evenodd" fill="#00305E" points="255.024,30.456 255.024,27 240.624,27 240.624,30.456 
		245.88,30.456 245.88,47.088 249.768,47.088 249.768,30.456 255.024,30.456 	"/>
	<path fill-rule="evenodd" clip-rule="evenodd" fill="#00305E" d="M99.792,63.648c0-3.025,0.288-5.76-2.016-7.992
		c-1.296-1.369-3.168-1.945-5.256-1.945h-7.272v20.09h7.272c2.088,0,3.96-0.576,5.256-1.945
		C100.08,69.623,99.792,66.672,99.792,63.648L99.792,63.648z M95.904,63.648c0,3.096-0.144,4.535-0.864,5.4
		c-0.648,0.791-1.584,1.223-2.88,1.223h-2.952V57.24h2.952c1.296,0,2.232,0.432,2.88,1.225
		C95.76,59.328,95.904,60.623,95.904,63.648L95.904,63.648z"/>
	<path fill-rule="evenodd" clip-rule="evenodd" fill="#00305E" d="M119.16,73.801l-4.464-8.641c1.944-0.721,3.672-2.449,3.672-5.256
		c0-3.385-2.448-6.193-6.552-6.193h-7.848v20.09h3.888v-7.992h2.88l3.888,7.992H119.16L119.16,73.801z M114.408,59.904
		c0,1.512-1.08,2.592-2.808,2.592h-3.744V57.24h3.744C113.328,57.24,114.408,58.32,114.408,59.904L114.408,59.904z"/>
	<polygon fill-rule="evenodd" clip-rule="evenodd" fill="#00305E" points="135.792,73.801 135.792,70.271 126.432,70.271 
		126.432,65.447 134.352,65.447 134.352,61.92 126.432,61.92 126.432,57.24 135.792,57.24 135.792,53.711 122.544,53.711 
		122.544,73.801 135.792,73.801 	"/>
	<path fill-rule="evenodd" clip-rule="evenodd" fill="#00305E" d="M152.711,67.896c0-1.801-0.504-3.24-1.583-4.248
		c-0.864-0.793-2.017-1.297-3.816-1.584l-2.376-0.361c-0.792-0.07-1.44-0.432-1.872-0.791s-0.576-0.936-0.576-1.439
		c0-1.369,1.008-2.521,3.096-2.521c1.297,0,2.881,0.217,4.104,1.369l2.52-2.449c-1.728-1.654-3.743-2.303-6.479-2.303
		c-4.393,0-6.984,2.52-6.984,6.047c0,1.729,0.433,3.025,1.368,3.961c0.937,0.863,2.232,1.439,3.96,1.656l2.376,0.359
		c0.937,0.145,1.368,0.359,1.8,0.721c0.433,0.359,0.576,0.936,0.576,1.656c0,1.654-1.224,2.52-3.527,2.52
		c-1.872,0-3.601-0.432-4.824-1.729l-2.521,2.52c1.944,2.016,4.248,2.664,7.272,2.664C149.472,73.943,152.711,71.783,152.711,67.896
		L152.711,67.896z"/>
	<path fill-rule="evenodd" clip-rule="evenodd" fill="#00305E" d="M171.072,63.648c0-3.025,0.216-5.76-2.016-7.992
		c-1.296-1.369-3.24-1.945-5.328-1.945h-7.2v20.09h7.2c2.088,0,4.032-0.576,5.328-1.945
		C171.288,69.623,171.072,66.672,171.072,63.648L171.072,63.648z M167.184,63.648c0,3.096-0.145,4.535-0.864,5.4
		c-0.647,0.791-1.584,1.223-2.952,1.223h-2.952V57.24h2.952c1.368,0,2.305,0.432,2.952,1.225
		C167.04,59.328,167.184,60.623,167.184,63.648L167.184,63.648z"/>
	<polygon fill-rule="evenodd" clip-rule="evenodd" fill="#00305E" points="188.424,73.801 188.424,70.271 179.136,70.271 
		179.136,65.447 187.056,65.447 187.056,61.92 179.136,61.92 179.136,57.24 188.424,57.24 188.424,53.711 175.248,53.711 
		175.248,73.801 188.424,73.801 	"/>
	<polygon fill-rule="evenodd" clip-rule="evenodd" fill="#00305E" points="207.792,73.801 207.792,53.711 203.832,53.711 
		203.832,66.023 195.912,53.711 192.384,53.711 192.384,73.801 196.344,73.801 196.344,61.488 204.264,73.801 207.792,73.801 	"/>
	<polygon fill-rule="evenodd" clip-rule="evenodd" fill="#00305E" points="99.648,3.672 99.648,0.216 85.248,0.216 85.248,3.672 
		90.504,3.672 90.504,20.232 94.392,20.232 94.392,3.672 99.648,3.672 	"/>
	<polygon fill-rule="evenodd" clip-rule="evenodd" fill="#00305E" points="116.496,20.232 116.496,16.776 107.136,16.776 
		107.136,11.88 115.056,11.88 115.056,8.424 107.136,8.424 107.136,3.672 116.496,3.672 116.496,0.216 103.248,0.216 
		103.248,20.232 116.496,20.232 	"/>
	<path fill-rule="evenodd" clip-rule="evenodd" fill="#00305E" d="M134.711,14.112h-3.96c-0.432,1.584-1.439,2.808-3.384,2.808
		c-1.08,0-1.944-0.36-2.52-1.008c-0.792-0.864-1.008-1.8-1.008-5.688c0-3.888,0.216-4.824,1.008-5.688
		c0.576-0.648,1.44-1.008,2.52-1.008c1.944,0,2.952,1.224,3.384,2.808h3.96C133.992,2.16,131.04,0,127.296,0
		c-2.16,0-3.96,0.792-5.4,2.232c-2.016,2.016-1.944,4.536-1.944,7.992c0,3.456-0.072,5.976,1.944,7.992
		c1.44,1.44,3.24,2.232,5.4,2.232C131.04,20.448,133.992,18.288,134.711,14.112L134.711,14.112z"/>
	<polygon fill-rule="evenodd" clip-rule="evenodd" fill="#00305E" points="153,20.232 153,0.216 149.112,0.216 149.112,8.424 
		142.272,8.424 142.272,0.216 138.384,0.216 138.384,20.232 142.272,20.232 142.272,11.88 149.112,11.88 149.112,20.232 153,20.232 
			"/>
	<polygon fill-rule="evenodd" clip-rule="evenodd" fill="#00305E" points="173.375,20.232 173.375,0.216 169.488,0.216 
		169.488,12.456 161.496,0.216 158.04,0.216 158.04,20.232 161.928,20.232 161.928,7.92 169.919,20.232 173.375,20.232 	"/>
	<polygon fill-rule="evenodd" clip-rule="evenodd" fill="#00305E" points="182.304,20.232 182.304,0.216 178.416,0.216 
		178.416,20.232 182.304,20.232 	"/>
	<path fill-rule="evenodd" clip-rule="evenodd" fill="#00305E" d="M200.304,14.328c0-1.728-0.504-3.24-1.584-4.248
		c-0.792-0.792-1.944-1.296-3.816-1.512l-2.376-0.36c-0.792-0.144-1.44-0.432-1.872-0.792c-0.359-0.432-0.576-0.936-0.576-1.439
		c0-1.368,1.008-2.52,3.097-2.52c1.367,0,2.88,0.144,4.104,1.368l2.521-2.448C198.072,0.72,196.056,0,193.32,0
		c-4.32,0-6.984,2.52-6.984,6.12c0,1.656,0.433,2.952,1.44,3.96c0.864,0.864,2.16,1.368,3.888,1.656l2.376,0.36
		c0.937,0.144,1.44,0.288,1.801,0.648c0.432,0.432,0.647,1.008,0.647,1.728c0,1.584-1.296,2.448-3.6,2.448
		c-1.801,0-3.528-0.432-4.824-1.656l-2.521,2.52c1.944,2.016,4.248,2.664,7.345,2.664C197.064,20.448,200.304,18.216,200.304,14.328
		L200.304,14.328z"/>
	<path fill-rule="evenodd" clip-rule="evenodd" fill="#00305E" d="M218.448,14.112h-3.96c-0.359,1.584-1.439,2.808-3.384,2.808
		c-1.08,0-1.944-0.36-2.521-1.008c-0.72-0.864-0.936-1.8-0.936-5.688c0-3.888,0.216-4.824,0.936-5.688
		c0.576-0.648,1.44-1.008,2.521-1.008c1.944,0,3.024,1.224,3.384,2.808h3.96C217.728,2.16,214.848,0,211.104,0
		c-2.232,0-4.032,0.792-5.472,2.232c-2.017,2.016-1.944,4.536-1.944,7.992c0,3.456-0.072,5.976,1.944,7.992
		c1.439,1.44,3.239,2.232,5.472,2.232C214.776,20.448,217.728,18.288,218.448,14.112L218.448,14.112z"/>
	<polygon fill-rule="evenodd" clip-rule="evenodd" fill="#00305E" points="236.736,20.232 236.736,0.216 232.848,0.216 
		232.848,8.424 226.08,8.424 226.08,0.216 222.12,0.216 222.12,20.232 226.08,20.232 226.08,11.88 232.848,11.88 232.848,20.232 
		236.736,20.232 	"/>
	<polygon fill-rule="evenodd" clip-rule="evenodd" fill="#00305E" points="255.096,20.232 255.096,16.776 245.736,16.776 
		245.736,11.88 253.656,11.88 253.656,8.424 245.736,8.424 245.736,3.672 255.096,3.672 255.096,0.216 241.848,0.216 
		241.848,20.232 255.096,20.232 	"/>
	<path fill-rule="evenodd" clip-rule="evenodd" fill="#00305E" d="M4.464,29.232h20.088v23.401h24.552V29.232H69.12v20.52
		L49.536,69.336H24.048L4.464,49.752V29.232L4.464,29.232z M66.96,31.464H51.336v23.399H22.32V31.464H6.696v17.425l18.288,18.215
		h23.688l18.216-18.215L66.96,31.464L66.96,31.464z M66.528,24.768L48.672,6.912H24.984L7.128,24.768h21.888v23.4H44.64v-23.4
		H66.528L66.528,24.768z M69.12,27H46.872v23.4H26.784V27H4.464v-2.736L24.048,4.68h25.488L69.12,24.264V27L69.12,27L69.12,27z
		 M0,22.536V51.48l22.32,22.32h29.016l22.248-22.32V22.536L51.336,0.216H22.32L0,22.536L0,22.536z M2.232,23.4v27.215l20.952,20.953
		H50.4l20.952-20.953V23.4L50.4,2.448H23.184L2.232,23.4L2.232,23.4z"/>
</g>
</svg>
